<svg width="25" height="25" viewBox="0 0 25 25" fill="none" xmlns="http://www.w3.org/2000/svg">
<path opacity="0.46" d="M9.7 23.6998C15.0572 23.6998 19.4 19.357 19.4 13.9998C19.4 8.64264 15.0572 4.2998 9.7 4.2998C4.34284 4.2998 0 8.64264 0 13.9998C0 19.357 4.34284 23.6998 9.7 23.6998Z" fill="url(#paint0_linear_46_1808)"/>
<path d="M9.7 21.4998L9.5 21.2998C7.6 18.1998 2.7 11.3998 2.5 11.1998V10.9998L4.2 9.2998L9.6 13.0998C12.9 8.6998 16.2 5.7998 18.1 3.8998C20.5 2.1998 21.9 1.2998 21.9 1.2998H24.9L24.6 1.4998C17.6 7.7998 10 21.1998 9.8 21.2998L9.7 21.4998Z" fill="url(#paint1_linear_46_1808)"/>
<defs>
<linearGradient id="paint0_linear_46_1808" x1="20.2829" y1="45.158" x2="-6.17207" y2="35.863" gradientUnits="userSpaceOnUse">
<stop stop-color="#0B936A"/>
<stop offset="1" stop-color="#33B78F"/>
</linearGradient>
<linearGradient id="paint1_linear_46_1808" x1="25.9194" y1="43.8428" x2="-3.87458" y2="32.2347" gradientUnits="userSpaceOnUse">
<stop stop-color="#0B936A"/>
<stop offset="1" stop-color="#33B78F"/>
</linearGradient>
</defs>
</svg>
