<svg width="50" height="50" viewBox="0 0 50 50" fill="none" xmlns="http://www.w3.org/2000/svg">
<path d="M0 0H50V50H0V0Z" fill="url(#paint0_linear_1_616)"/>
<path d="M10 11.8H13.5V20.6H10V11.8Z" fill="white"/>
<path d="M36.5 29.4H40V38.2H36.5V29.4Z" fill="white"/>
<path d="M23.2 20.6H26.7V29.4H23.2V20.6Z" fill="white"/>
<path d="M12.6 27.6H21.4V22.3H12.6C11.1 22.3 10 23.5 10 24.9C10 26.3 11.2 27.6 12.6 27.6Z" fill="white"/>
<path d="M37.4 22.4H28.6V27.7H37.4C38.9 27.7 40 26.5 40 25.1C40 23.7 38.8 22.4 37.4 22.4Z" fill="white"/>
<path d="M37.4 13.6H15.3V18.9H37.4C38.9 18.9 40 17.7 40 16.3C40 14.9 38.8 13.6 37.4 13.6Z" fill="white"/>
<path d="M12.6 36.4H34.7V31.1H12.6C11.1 31.1 10 32.3 10 33.7C10 35.1 11.2 36.4 12.6 36.4Z" fill="white"/>
<defs>
<linearGradient id="paint0_linear_1_616" x1="52.2755" y1="105.305" x2="-15.9074" y2="81.3485" gradientUnits="userSpaceOnUse">
<stop stop-color="#0B936A"/>
<stop offset="1" stop-color="#33B78F"/>
</linearGradient>
</defs>
</svg>
