<svg width="50" height="50" viewBox="0 0 50 50" fill="none" xmlns="http://www.w3.org/2000/svg">
<path d="M0 0H50V50H0V0Z" fill="url(#paint0_linear_1_593)"/>
<path d="M12.7 25.9H10.9C10.4 25.9 10 26.3 10 26.8V39.2C10 39.7 10.4 40.1 10.9 40.1H12.7C14.2 40.1 15.3 38.9 15.3 37.5V28.7C15.3 27.1 14.2 25.9 12.7 25.9Z" fill="white"/>
<path d="M25 10C19.7 10 15.3 14.4 15.3 19.7C15.3 21.5 15.8 23.3 16.7 24.8C17.9 24.1 19.2 23.8 20.6 23.8C22.5 23.8 24.4 24.5 26 25.9H30.3C30.9 25.9 31.5 26.1 32 26.4C33.6 24.7 34.7 22.3 34.7 19.8C34.7 14.4 30.3 10 25 10ZM25 17.1C26.5 17.1 27.6 18.3 27.6 19.7C27.6 20.8 27 21.7 26 22.1H25.9V23.1C25.9 23.6 25.5 24 25 24C24.5 24 24.1 23.6 24.1 23.1V22.1C23.6 21.9 23.2 21.7 22.8 21.3C22.5 21 22.4 20.4 22.8 20.1C23.1 19.8 23.7 19.7 24 20.1C24.4 20.5 24.9 20.7 25.3 20.5C25.6 20.4 25.8 20 25.8 19.7C25.8 19.2 25.4 18.8 24.9 18.8C23.4 18.8 22.3 17.6 22.3 16.2C22.3 15.1 23 14.1 24 13.7V12.6C24 12.1 24.4 11.7 24.9 11.7C25.4 11.7 25.8 12.1 25.8 12.6V13.7C26.4 13.9 26.9 14.3 27.4 14.8C27.7 15.2 27.7 15.7 27.3 16C26.9 16.3 26.4 16.3 26.1 15.9C25.6 15.3 25.1 15.1 24.7 15.3C24.4 15.4 24.1 15.8 24.1 16.1C24.1 16.7 24.5 17.1 25 17.1Z" fill="white"/>
<path d="M39.3 26.2C38.6 25.7 37.6 25.8 37 26.4L32.3 32.3C32 32.7 31.3 32.9 31 32.9H25C24.5 32.9 24.1 32.5 24.1 32C24.1 31.5 24.5 31.1 25 31.1C28.9 31.1 26 31.1 30.3 31.1C31.3 31.1 32.1 30.3 32.1 29.3C32.1 28.3 31.3 27.5 30.3 27.5C26.2 27.5 30.1 27.5 25.6 27.5C25.2 27.5 24.9 27.2 24.6 26.9C24.1 26.4 23.5 26.1 22.9 25.8C21 25 18.8 25.3 17.1 26.5C17.1 29.7 17.1 34.5 17.1 38.1H30.3C32 38.1 33.5 37.3 34.5 35.9L39.6 28.5C40.2 27.9 40.1 26.8 39.3 26.2Z" fill="white"/>
<defs>
<linearGradient id="paint0_linear_1_593" x1="52.2755" y1="105.305" x2="-15.9074" y2="81.3485" gradientUnits="userSpaceOnUse">
<stop stop-color="#0B936A"/>
<stop offset="1" stop-color="#33B78F"/>
</linearGradient>
</defs>
</svg>
