<svg width="50" height="50" viewBox="0 0 50 50" fill="none" xmlns="http://www.w3.org/2000/svg">
<path d="M0 0H50V50H0V0Z" fill="url(#paint0_linear_1_662)"/>
<path d="M35.3 36.9H37.4C38.3 36.9 39 36.2 39 35.3V33.7H33.8V35.3C33.8 36.2 34.5 36.9 35.3 36.9Z" fill="white"/>
<path d="M35.9 30.7H35.4C34.5 30.7 33.8 31.4 33.8 32.3V32.8H35.9V30.7Z" fill="white"/>
<path d="M36.9 30.7V32.8H39V32.3C39 31.4 38.3 30.7 37.4 30.7H36.9V30.7Z" fill="white"/>
<path d="M37.4 37.9H35.3C34.1 37.9 33 38.8 32.8 40H39.9C39.7 38.8 38.7 37.9 37.4 37.9Z" fill="white"/>
<path d="M23 29.8L23.9 26.1L23.8 25.9L22.8 26.9L22.1 25.2C20.4 26.2 19.3 28.1 19.3 30.1V30.6H21.9C22.2 30.3 22.6 30 23 29.8Z" fill="white"/>
<path d="M19.3 17.2C18.7 17.2 18.3 17.7 18.3 18.2C18.3 18.8 18.8 19.2 19.3 19.2V17.2Z" fill="white"/>
<path d="M26 37.9H24C22.8 37.9 21.7 38.8 21.5 40H28.6C28.3 38.8 27.3 37.9 26 37.9Z" fill="white"/>
<path d="M28.1 10H21.9C19.9 10 18.3 11.6 18.3 13.6V16.5C18.6 16.3 19 16.2 19.3 16.2C19.3 14.9 20.2 13.7 21.4 13.3C21.5 12.6 21.9 12 22.5 11.7L22.7 11.6L23.2 12.5L23 12.6C22.7 12.8 22.5 13.1 22.5 13.5C22.5 13.9 22.8 14.3 23.2 14.4L25.6 15V13.5C25.6 12.7 26 12.1 26.7 11.7L26.9 11.6L27.4 12.5L27.2 12.6C26.9 12.8 26.7 13.1 26.7 13.5C26.7 13.9 27 14.3 27.4 14.4L29.2 14.9C29.9 15.1 30.4 15.6 30.6 16.2H30.7C31.1 16.2 31.4 16.3 31.7 16.5V13.6C31.7 11.6 30.1 10 28.1 10Z" fill="white"/>
<path d="M26.2 24.5L26.8 25.1L27.1 24.5C27.1 24.5 27.1 24.5 27 24.5H26.2Z" fill="white"/>
<path d="M27.9 25.3L27.3 27L26.3 26L26.2 26.2L27.1 29.9C27.5 30.1 27.9 30.4 28.2 30.7H30.8V30.2C30.7 28.2 29.6 26.3 27.9 25.3Z" fill="white"/>
<path d="M30.7 17.2V19.3C31.3 19.3 31.7 18.8 31.7 18.3C31.7 17.7 31.3 17.2 30.7 17.2Z" fill="white"/>
<path d="M29.7 20.9V16.9C29.7 16.4 29.4 16 28.9 15.9L27 15.4C26.8 15.4 26.7 15.3 26.5 15.2V16.3L22.8 15.4C22.2 15.2 21.7 14.8 21.5 14.3C20.8 14.6 20.3 15.4 20.3 16.2V20.9C20.3 22.3 21.5 23.5 22.9 23.5H27C28.5 23.4 29.7 22.3 29.7 20.9ZM21.9 17.8C21.9 17.2 22.4 16.8 22.9 16.8C23.5 16.8 23.9 17.3 23.9 17.8C23.9 18.4 23.4 18.8 22.9 18.8C22.4 18.8 21.9 18.3 21.9 17.8ZM25.5 22.4H23.4V21.4H25.5C26.1 21.4 26.5 20.9 26.5 20.4H27.5C27.6 21.5 26.7 22.4 25.5 22.4ZM27.1 18.8C26.5 18.8 26.1 18.3 26.1 17.8C26.1 17.2 26.6 16.8 27.1 16.8C27.7 16.8 28.1 17.3 28.1 17.8C28.1 18.3 27.6 18.8 27.1 18.8Z" fill="white"/>
<path d="M25.5 25.2L25 24.7L24.5 25.2L24.7 25.5H25.2L25.5 25.2Z" fill="white"/>
<path d="M25.9 29.7L25.1 26.6H24.9L24.1 29.7H25.9Z" fill="white"/>
<path d="M22.4 32.2V32.7H24.5V30.6H24C23.1 30.7 22.4 31.4 22.4 32.2Z" fill="white"/>
<path d="M22.9 24.5L23.2 25.1L23.8 24.5H22.9Z" fill="white"/>
<path d="M27.6 32.2C27.6 31.3 26.9 30.6 26 30.6H25.5V32.7H27.6V32.2Z" fill="white"/>
<path d="M22.4 35.3C22.4 36.2 23.1 36.9 24 36.9H26C26.9 36.9 27.6 36.2 27.6 35.3V33.7H22.4V35.3V35.3Z" fill="white"/>
<path d="M11 35.3C11 36.2 11.7 36.9 12.6 36.9H14.7C15.6 36.9 16.3 36.2 16.3 35.3V33.7H11V35.3Z" fill="white"/>
<path d="M12.6 30.7C11.7 30.7 11 31.4 11 32.3V32.8H13.1V30.7H12.6V30.7Z" fill="white"/>
<path d="M14.7 37.9H12.6C11.4 37.9 10.3 38.8 10.1 40H17.2C16.9 38.8 15.9 37.9 14.7 37.9Z" fill="white"/>
<path d="M16.2 32.2C16.2 31.3 15.5 30.6 14.6 30.6H14.1V32.7H16.2V32.2Z" fill="white"/>
<path d="M16.2 23.4H14.6V13.1H11.5V23.4H10L13.1 26.5L16.2 23.4Z" fill="white"/>
<path d="M40 23.4H38.4V12.1H35.3V23.5H33.7L36.8 26.6L40 23.4Z" fill="white"/>
<defs>
<linearGradient id="paint0_linear_1_662" x1="52.2755" y1="105.305" x2="-15.9074" y2="81.3485" gradientUnits="userSpaceOnUse">
<stop stop-color="#0B936A"/>
<stop offset="1" stop-color="#33B78F"/>
</linearGradient>
</defs>
</svg>
