<svg width="50" height="50" viewBox="0 0 50 50" fill="none" xmlns="http://www.w3.org/2000/svg">
<path d="M0 0H50V50H0V0Z" fill="url(#paint0_linear_1_610)"/>
<path d="M27.1 18.9C27.1 17.8 26.2 16.8 25 16.8C23.8 16.8 22.9 17.7 22.9 18.9C22.9 20.1 23.9 21 25 21C26.1 21 27.1 20 27.1 18.9Z" fill="white"/>
<path d="M34.1 32.4V13.2C34.1 11.4 32.7 10 30.9 10H19.1C17.3 10 15.9 11.4 15.9 13.2V32.4H34.1ZM27.3 28.9H22.6C22.1 28.9 21.7 28.5 21.7 28C21.7 27.5 22.1 27.1 22.6 27.1H27.3C27.8 27.1 28.2 27.5 28.2 28C28.2 28.5 27.8 28.9 27.3 28.9ZM20.3 18H21.3C21.4 17.6 21.6 17.2 21.8 16.9L21.1 16.2C20.8 15.9 20.8 15.3 21.1 15C21.4 14.7 22 14.7 22.3 15L23 15.7C23.3 15.5 23.7 15.3 24.1 15.2V14.2C24.1 13.7 24.5 13.3 25 13.3C25.5 13.3 25.9 13.7 25.9 14.2V15.2C26.3 15.3 26.7 15.5 27 15.7L27.7 15C28 14.7 28.6 14.7 28.9 15C29.2 15.3 29.2 15.9 28.9 16.2L28.2 16.9C28.4 17.2 28.6 17.6 28.7 18H29.7C30.2 18 30.6 18.4 30.6 18.9C30.6 19.4 30.2 19.8 29.7 19.8H28.7C28.6 20.2 28.4 20.6 28.2 20.9L28.9 21.6C29.2 21.9 29.2 22.5 28.9 22.8C28.7 23 28.5 23.1 28.3 23.1C28.1 23.1 27.9 23 27.7 22.8L27 22.1C26.7 22.3 26.3 22.5 25.9 22.6V23.6C25.9 24.1 25.5 24.5 25 24.5C24.5 24.5 24.1 24.1 24.1 23.6V22.6C23.7 22.5 23.3 22.3 23 22.1L22.3 22.8C22.1 23 21.9 23.1 21.7 23.1C21.5 23.1 21.3 23 21.1 22.8C20.8 22.5 20.8 21.9 21.1 21.6L21.8 20.9C21.6 20.6 21.4 20.2 21.3 19.8H20.3C19.8 19.8 19.4 19.4 19.4 18.9C19.4 18.4 19.8 18 20.3 18Z" fill="white"/>
<path d="M15.9 34.1V36.7C15.9 38.5 17.3 39.9 19.1 39.9H30.8C32.6 39.9 34 38.5 34 36.7V34.1H15.9ZM26.2 37.9H23.9C23.4 37.9 23 37.5 23 37C23 36.5 23.4 36.1 23.9 36.1H26.2C26.7 36.1 27.1 36.5 27.1 37C27.1 37.5 26.7 37.9 26.2 37.9Z" fill="white"/>
<defs>
<linearGradient id="paint0_linear_1_610" x1="52.2755" y1="105.305" x2="-15.9074" y2="81.3485" gradientUnits="userSpaceOnUse">
<stop stop-color="#0B936A"/>
<stop offset="1" stop-color="#33B78F"/>
</linearGradient>
</defs>
</svg>
