<svg width="50" height="50" viewBox="0 0 50 50" fill="none" xmlns="http://www.w3.org/2000/svg">
<path d="M0 0H50V50H0V0Z" fill="url(#paint0_linear_1_605)"/>
<path d="M37.8 36.6C37 34.2 36 31.2 32.1 31.2H30C30.6 30.7 31.2 30.1 31.7 29.4H32C34.4 29.4 36.4 27.4 36.4 25C36.4 23.7 36.4 22.8 36.4 21.5C36.4 15.2 31.3 10 25 10C18.6 10 13.5 15.4 13.6 21.6C13.6 23.5 13.6 22.8 13.6 25C13.6 27.4 15.6 29.4 18 29.4H18.5C19 30.1 19.5 30.7 20.2 31.2H18C14.1 31.2 13.1 34.2 12.3 36.6C11.7 38.3 13 40 14.8 40H35.3C37 40 38.3 38.3 37.8 36.6ZM17.2 20.6H16.2C15.9 20.6 15.7 20.7 15.4 20.7C15.8 15.4 20.1 11.7 25 11.7C30.1 11.7 34.3 15.7 34.6 20.7C34.3 20.6 34.1 20.5 33.8 20.5H32.8C32.4 16.6 29 13.4 25 13.4C21 13.4 17.6 16.7 17.2 20.6ZM25 37.7L21.5 33H28.5L25 37.7ZM25 31.2C21.6 31.2 18.8 28.4 18.8 25V24.1H21.4C22.8 24.1 24.1 23.4 24.9 22.3C25.7 23.4 27 24.1 28.4 24.1H31V25C31 25.9 30.8 26.8 30.4 27.6H26.6C26.1 27.6 25.7 28 25.7 28.5C25.7 29 26.1 29.4 26.6 29.4H29.1C28.2 30.5 26.7 31.2 25 31.2Z" fill="white"/>
<defs>
<linearGradient id="paint0_linear_1_605" x1="52.2755" y1="105.305" x2="-15.9074" y2="81.3485" gradientUnits="userSpaceOnUse">
<stop stop-color="#0B936A"/>
<stop offset="1" stop-color="#33B78F"/>
</linearGradient>
</defs>
</svg>
