<svg width="50" height="50" viewBox="0 0 50 50" fill="none" xmlns="http://www.w3.org/2000/svg">
<path d="M0 0H50V50H0V0Z" fill="url(#paint0_linear_1_626)"/>
<path d="M19.4 22.5H23.2C23.5 22.5 23.8 22.2 23.8 21.9V18.1C23.8 17.8 23.5 17.5 23.2 17.5H19.4C19.1 17.5 18.8 17.8 18.8 18.1V21.9C18.7 22.2 19 22.5 19.4 22.5Z" fill="white"/>
<path d="M26.2 21.9C26.2 22.2 26.5 22.5 26.8 22.5H30.6C30.9 22.5 31.2 22.2 31.2 21.9V18.1C31.2 17.8 30.9 17.5 30.6 17.5H26.8C26.5 17.5 26.2 17.8 26.2 18.1V21.9Z" fill="white"/>
<path d="M19.4 30H23.2C23.5 30 23.8 29.7 23.8 29.4V25.6C23.8 25.3 23.5 25 23.2 25H19.4C19.1 25 18.8 25.3 18.8 25.6V29.4C18.7 29.7 19 30 19.4 30Z" fill="white"/>
<path d="M30.6 25H26.8C26.5 25 26.2 25.3 26.2 25.6V29.4C26.2 29.7 26.5 30 26.8 30H30.6C30.9 30 31.2 29.7 31.2 29.4V25.6C31.3 25.3 31 25 30.6 25Z" fill="white"/>
<path d="M24.4 15H25.6C25.9 15 26.2 14.7 26.2 14.4C26.2 14.1 25.9 13.8 25.6 13.8H24.4C24.1 13.8 23.8 14.1 23.8 14.4C23.8 14.7 24 15 24.4 15Z" fill="white"/>
<path d="M32.5 10H17.5C16.1 10 15 11.1 15 12.5V37.5C15 38.9 16.1 40 17.5 40H32.5C33.9 40 35 38.9 35 37.5V12.5C35 11.1 33.9 10 32.5 10ZM26.9 37.5H23.1C22.8 37.5 22.5 37.2 22.5 36.9C22.5 36.6 22.8 36.3 23.1 36.3H26.9C27.2 36.3 27.5 36.6 27.5 36.9C27.5 37.2 27.2 37.5 26.9 37.5ZM32.5 33.7H17.5V12.5H32.5V33.7Z" fill="white"/>
<path d="M30.6 15C30.9314 15 31.2 14.7314 31.2 14.4C31.2 14.0686 30.9314 13.8 30.6 13.8C30.2686 13.8 30 14.0686 30 14.4C30 14.7314 30.2686 15 30.6 15Z" fill="white"/>
<defs>
<linearGradient id="paint0_linear_1_626" x1="52.2755" y1="105.305" x2="-15.9074" y2="81.3485" gradientUnits="userSpaceOnUse">
<stop stop-color="#0B936A"/>
<stop offset="1" stop-color="#33B78F"/>
</linearGradient>
</defs>
</svg>
