<svg width="70" height="70" viewBox="0 0 70 70" fill="none" xmlns="http://www.w3.org/2000/svg">
<path d="M35 70C33.1 70 31.3 69.2 30.1 67.9C28.8 66.5 28.2 64.7 28.3 62.8L29 51.9L35 49.5L41 51.9L41.7 62.8C41.8 64.7 41.2 66.5 39.9 67.9C38.6 69.3 36.9 70 35 70Z" fill="url(#paint0_linear_1_109)"/>
<path d="M43.4 44.7V49.5C43.4 50.8 42.3 51.9 41 51.9H29C27.7 51.9 26.6 50.8 26.6 49.5V44.7H43.4Z" fill="url(#paint1_linear_1_109)"/>
<path d="M16.9 0H53.1C55.1 0 56.7 1.6 56.7 3.6V42.2C56.7 44.2 55.1 45.8 53.1 45.8H16.9C14.9 45.8 13.3 44.2 13.3 42.2V3.6C13.3 1.6 14.9 0 16.9 0Z" fill="url(#paint2_linear_1_109)"/>
<path d="M29 31.4C28.4 31.4 27.9 31 27.8 30.4C27.1 27.3 24.6 24.8 21.5 24.1C20.9 24 20.5 23.3 20.6 22.7C20.7 22.1 21.3 21.6 22 21.7C25 22.4 27.6 24.3 29.2 27C33.4 19.5 40.9 14.4 49.4 13.2C49.8 13.1 50.3 13.3 50.6 13.6C50.9 13.9 51 14.4 50.8 14.8C50.6 15.2 50.3 15.5 49.8 15.5C41.1 16.8 33.7 22.4 30.2 30.4C29.9 31.1 29.5 31.4 29 31.4Z" fill="white"/>
<path d="M35 39.8C33.6 39.8 32.2 39.6 30.9 39.3C25.2 37.9 20.7 33.6 18.9 28.1C18.8 28 18.8 27.8 18.8 27.6C18.8 26.9 19.3 26.4 20 26.4C20.5 26.4 21 26.7 21.2 27.2C22.7 32 26.6 35.7 31.5 36.9C32.6 37.2 33.8 37.3 35 37.3C39.5 37.3 43.7 35.2 46.5 31.6C49.2 28 50.2 23.4 49 19.1C48.8 18.5 49.2 17.8 49.9 17.6C50.5 17.4 51.2 17.8 51.4 18.5C52.7 23.6 51.6 29 48.4 33.1C45.2 37.4 40.2 39.8 35 39.8Z" fill="white"/>
<path d="M20.1 19.1C20 19.1 19.8 19.1 19.7 19C19.4 18.9 19.1 18.7 19 18.4C18.9 18.1 18.8 17.8 18.9 17.5C20.6 12.3 24.8 8.3 30.1 6.7C35.4 5.1 41.1 6.2 45.4 9.6C45.9 10 46 10.8 45.6 11.3C45.2 11.8 44.4 11.9 43.9 11.5C40.2 8.6 35.3 7.7 30.8 9C26.3 10.3 22.7 13.8 21.2 18.3C21.1 18.8 20.6 19.1 20.1 19.1Z" fill="white"/>
<defs>
<linearGradient id="paint0_linear_1_109" x1="43.2373" y1="76.8731" x2="17.2826" y2="64.3888" gradientUnits="userSpaceOnUse">
<stop stop-color="#222429"/>
<stop offset="1" stop-color="#383A3E"/>
</linearGradient>
<linearGradient id="paint1_linear_1_109" x1="26.5517" y1="48.2759" x2="43.4483" y2="48.2759" gradientUnits="userSpaceOnUse">
<stop stop-color="#D3D3D4"/>
<stop offset="1" stop-color="#D3D3D4"/>
</linearGradient>
<linearGradient id="paint2_linear_1_109" x1="58.6752" y1="96.459" x2="-1.17886" y2="76.5313" gradientUnits="userSpaceOnUse">
<stop stop-color="#0B936A"/>
<stop offset="1" stop-color="#33B78F"/>
</linearGradient>
</defs>
</svg>
