<svg width="70" height="70" viewBox="0 0 70 70" fill="none" xmlns="http://www.w3.org/2000/svg">
<g clip-path="url(#clip0_1_49)">
<path d="M49.9 58.8H6.2C2.8 58.8 0 56 0 52.6V15.7C0 14.6 0.9 13.6 2.1 13.6H54.1C55.2 13.6 56.2 14.5 56.2 15.7V52.6C56.1 56 53.3 58.8 49.9 58.8Z" fill="#E9E9EA"/>
<path d="M54 13.7H28V58.8H49.9C53.3 58.8 56.1 56 56.1 52.6V15.7C56.1 14.6 55.1 13.7 54 13.7Z" fill="url(#paint0_linear_1_49)"/>
<path d="M45.8 26H16.4C15.3 26 14.3 25.1 14.3 23.9C14.3 22.8 15.2 21.8 16.4 21.8H45.8C46.9 21.8 47.9 22.7 47.9 23.9C47.9 25.1 46.9 26 45.8 26Z" fill="url(#paint1_linear_1_49)"/>
<path d="M8.2 26C9.3598 26 10.3 25.0598 10.3 23.9C10.3 22.7402 9.3598 21.8 8.2 21.8C7.0402 21.8 6.1 22.7402 6.1 23.9C6.1 25.0598 7.0402 26 8.2 26Z" fill="url(#paint2_linear_1_49)"/>
<path d="M8.2 34.2C9.3598 34.2 10.3 33.2598 10.3 32.1C10.3 30.9402 9.3598 30 8.2 30C7.0402 30 6.1 30.9402 6.1 32.1C6.1 33.2598 7.0402 34.2 8.2 34.2Z" fill="url(#paint3_linear_1_49)"/>
<path d="M23.2 34.2H16.4C15.3 34.2 14.3 33.3 14.3 32.1C14.3 31 15.2 30 16.4 30H23.2C24.3 30 25.3 30.9 25.3 32.1C25.3 33.3 24.4 34.2 23.2 34.2Z" fill="url(#paint4_linear_1_49)"/>
<path d="M23.2 42.4H16.4C15.3 42.4 14.3 41.5 14.3 40.3C14.3 39.2 15.2 38.2 16.4 38.2H23.2C24.3 38.2 25.3 39.1 25.3 40.3C25.3 41.5 24.4 42.4 23.2 42.4Z" fill="url(#paint5_linear_1_49)"/>
<path d="M8.2 42.4C9.3598 42.4 10.3 41.4598 10.3 40.3C10.3 39.1402 9.3598 38.2 8.2 38.2C7.0402 38.2 6.1 39.1402 6.1 40.3C6.1 41.4598 7.0402 42.4 8.2 42.4Z" fill="url(#paint6_linear_1_49)"/>
<path d="M30.8 50.6H16.4C15.3 50.6 14.3 49.7 14.3 48.5C14.3 47.4 15.2 46.4 16.4 46.4H30.8C31.9 46.4 32.9 47.3 32.9 48.5C32.8 49.7 31.9 50.6 30.8 50.6Z" fill="url(#paint7_linear_1_49)"/>
<path d="M8.2 50.6C9.3598 50.6 10.3 49.6598 10.3 48.5C10.3 47.3402 9.3598 46.4 8.2 46.4C7.0402 46.4 6.1 47.3402 6.1 48.5C6.1 49.6598 7.0402 50.6 8.2 50.6Z" fill="url(#paint8_linear_1_49)"/>
<path d="M30.8 46.5H28V50.6H30.7C31.8 50.6 32.8 49.7 32.8 48.5C32.8 47.4 31.9 46.5 30.8 46.5Z" fill="#EDEBED"/>
<path d="M45.8 21.9H28V26H45.8C46.9 26 47.9 25.1 47.9 23.9C47.9 22.8 46.9 21.9 45.8 21.9Z" fill="#EDEBED"/>
<path d="M49.9 0H28C26.9 0 26 0.9 26 2.1V13.7C26 14.8 26.9 15.8 28.1 15.8H56.1V6.2C56.1 2.8 53.3 0 49.9 0Z" fill="url(#paint9_linear_1_49)"/>
<path d="M28 0H6.2C2.8 0 0 2.8 0 6.2V15.8H28V0Z" fill="url(#paint10_linear_1_49)"/>
<path d="M7.2 10C8.3598 10 9.3 9.0598 9.3 7.9C9.3 6.7402 8.3598 5.8 7.2 5.8C6.0402 5.8 5.1 6.7402 5.1 7.9C5.1 9.0598 6.0402 10 7.2 10Z" fill="#E6ECF8"/>
<path d="M14 10C15.1598 10 16.1 9.0598 16.1 7.9C16.1 6.7402 15.1598 5.8 14 5.8C12.8402 5.8 11.9 6.7402 11.9 7.9C11.9 9.0598 12.8402 10 14 10Z" fill="#E6ECF8"/>
<path d="M20.9 10C22.0598 10 23 9.0598 23 7.9C23 6.7402 22.0598 5.8 20.9 5.8C19.7402 5.8 18.8 6.7402 18.8 7.9C18.8 9.0598 19.7402 10 20.9 10Z" fill="#E6ECF8"/>
<path d="M55.6 56.1H47.1C46.5 56.1 46 55.9 45.6 55.4L33.3 41.7C32.8 41.1 32.6 40.2 33 39.5C33.3 38.8 34.1 38.3 34.9 38.3H68C68.8 38.3 69.5 38.8 69.9 39.5C70.2 40.2 70.1 41.1 69.6 41.7L57.2 55.4C56.8 55.8 56.2 56.1 55.6 56.1Z" fill="url(#paint11_linear_1_49)"/>
<path d="M67.9 38.3H51.4V56.1H55.6C56.2 56.1 56.7 55.9 57.1 55.4L69.4 41.7C69.9 41.1 70.1 40.2 69.7 39.5C69.5 38.8 68.8 38.3 67.9 38.3Z" fill="url(#paint12_linear_1_49)"/>
<path d="M67.9 30.1H34.9C33.8 30.1 32.8 31 32.8 32.2V40.4H70V32.2C70 31 69.1 30.1 67.9 30.1Z" fill="url(#paint13_linear_1_49)"/>
<path d="M67.9 30.1H51.4V40.4H70V32.2C70 31 69.1 30.1 67.9 30.1Z" fill="url(#paint14_linear_1_49)"/>
<path d="M45.1 54.8V63.9C45.1 64.7 45.5 65.4 46.3 65.7L54.8 69.8C55.1 69.9 55.4 70 55.7 70C56.1 70 56.5 69.9 56.8 69.7C57.4 69.3 57.8 68.7 57.8 68V54.8H45.1Z" fill="url(#paint15_linear_1_49)"/>
<path d="M51.4 68.2L54.7 69.8C55 69.9 55.3 70 55.6 70C56 70 56.4 69.9 56.7 69.7C57.3 69.3 57.7 68.7 57.7 68V54.8H51.4V68.2Z" fill="url(#paint16_linear_1_49)"/>
</g>
<defs>
<linearGradient id="paint0_linear_1_49" x1="59.2961" y1="73.9208" x2="3.97527" y2="48.5974" gradientUnits="userSpaceOnUse">
<stop stop-color="#222429"/>
<stop offset="1" stop-color="#383A3E"/>
</linearGradient>
<linearGradient id="paint1_linear_1_49" x1="49.4292" y1="30.6456" x2="43.6458" y2="14.3898" gradientUnits="userSpaceOnUse">
<stop stop-color="#0B936A"/>
<stop offset="1" stop-color="#33B78F"/>
</linearGradient>
<linearGradient id="paint2_linear_1_49" x1="10.7777" y1="27.4082" x2="4.28245" y2="22.6361" gradientUnits="userSpaceOnUse">
<stop stop-color="#222429"/>
<stop offset="1" stop-color="#383A3E"/>
</linearGradient>
<linearGradient id="paint3_linear_1_49" x1="10.7777" y1="35.6081" x2="4.28245" y2="30.8361" gradientUnits="userSpaceOnUse">
<stop stop-color="#222429"/>
<stop offset="1" stop-color="#383A3E"/>
</linearGradient>
<linearGradient id="paint4_linear_1_49" x1="25.8006" y1="38.8456" x2="16.6755" y2="30.4487" gradientUnits="userSpaceOnUse">
<stop stop-color="#0B936A"/>
<stop offset="1" stop-color="#33B78F"/>
</linearGradient>
<linearGradient id="paint5_linear_1_49" x1="25.8006" y1="47.0456" x2="16.6755" y2="38.6487" gradientUnits="userSpaceOnUse">
<stop stop-color="#0B936A"/>
<stop offset="1" stop-color="#33B78F"/>
</linearGradient>
<linearGradient id="paint6_linear_1_49" x1="10.7777" y1="43.8081" x2="4.28245" y2="39.0361" gradientUnits="userSpaceOnUse">
<stop stop-color="#222429"/>
<stop offset="1" stop-color="#383A3E"/>
</linearGradient>
<linearGradient id="paint7_linear_1_49" x1="33.7465" y1="55.2456" x2="25.4172" y2="42.2853" gradientUnits="userSpaceOnUse">
<stop stop-color="#0B936A"/>
<stop offset="1" stop-color="#33B78F"/>
</linearGradient>
<linearGradient id="paint8_linear_1_49" x1="10.7777" y1="52.0081" x2="4.28246" y2="47.2361" gradientUnits="userSpaceOnUse">
<stop stop-color="#222429"/>
<stop offset="1" stop-color="#383A3E"/>
</linearGradient>
<linearGradient id="paint9_linear_1_49" x1="59.5236" y1="21.0973" x2="35.3005" y2="-12.806" gradientUnits="userSpaceOnUse">
<stop stop-color="#222429"/>
<stop offset="1" stop-color="#383A3E"/>
</linearGradient>
<linearGradient id="paint10_linear_1_49" x1="31.1847" y1="21.0973" x2="6.44606" y2="-11.112" gradientUnits="userSpaceOnUse">
<stop stop-color="#222429"/>
<stop offset="1" stop-color="#383A3E"/>
</linearGradient>
<linearGradient id="paint11_linear_1_49" x1="71.7655" y1="75.7884" x2="34.7145" y2="48.523" gradientUnits="userSpaceOnUse">
<stop stop-color="#0B936A"/>
<stop offset="1" stop-color="#33B78F"/>
</linearGradient>
<linearGradient id="paint12_linear_1_49" x1="70.7553" y1="75.7884" x2="45.7348" y2="66.6455" gradientUnits="userSpaceOnUse">
<stop stop-color="#0B936A"/>
<stop offset="1" stop-color="#33B78F"/>
</linearGradient>
<linearGradient id="paint13_linear_1_49" x1="71.693" y1="51.7927" x2="49.8596" y2="24.0872" gradientUnits="userSpaceOnUse">
<stop stop-color="#0B936A"/>
<stop offset="1" stop-color="#33B78F"/>
</linearGradient>
<linearGradient id="paint14_linear_1_49" x1="70.8465" y1="51.7927" x2="50.5299" y2="38.9024" gradientUnits="userSpaceOnUse">
<stop stop-color="#0B936A"/>
<stop offset="1" stop-color="#33B78F"/>
</linearGradient>
<linearGradient id="paint15_linear_1_49" x1="58.378" y1="86.8126" x2="40.4653" y2="81.5541" gradientUnits="userSpaceOnUse">
<stop stop-color="#0B936A"/>
<stop offset="1" stop-color="#33B78F"/>
</linearGradient>
<linearGradient id="paint16_linear_1_49" x1="57.9867" y1="86.8126" x2="48.5356" y2="85.4363" gradientUnits="userSpaceOnUse">
<stop stop-color="#0B936A"/>
<stop offset="1" stop-color="#33B78F"/>
</linearGradient>
<clipPath id="clip0_1_49">
<rect width="70" height="70" fill="white"/>
</clipPath>
</defs>
</svg>
