<svg width="70" height="70" viewBox="0 0 70 70" fill="none" xmlns="http://www.w3.org/2000/svg">
<g clip-path="url(#clip0_1_96)">
<path d="M4.4 2.2H52.5C54.9 2.2 56.9 4.2 56.9 6.6V65.7C56.9 68.1 54.9 70.1 52.5 70.1H4.4C2 70 0 68 0 65.6V6.6C0 4.1 2 2.2 4.4 2.2Z" fill="url(#paint0_linear_1_96)"/>
<path d="M4.39999 51.2V6.6H52.5V65.7H18.8L4.39999 51.2Z" fill="white"/>
<path d="M70 50.3C70 61.2 61.2 70 50.3 70C39.4 70 30.6 61.2 30.6 50.3C30.6 39.4 39.4 30.6 50.3 30.6C61.2 30.6 70 39.4 70 50.3Z" fill="url(#paint1_linear_1_96)"/>
<path d="M45.8 58.7L41.6 54.5C40.7 53.6 40.7 52.3 41.6 51.4C42.5 50.5 43.8 50.5 44.7 51.4L46.1 52.8L56 44.5C56.9 43.7 58.3 43.9 59.1 44.8C59.9 45.7 59.7 47.1 58.8 47.9L45.8 58.7Z" fill="white"/>
<path d="M24.1 17.5H41.6C42.8 17.5 43.8 18.5 43.8 19.7C43.8 20.9 42.8 21.9 41.6 21.9H24.1C22.9 21.9 21.9 20.9 21.9 19.7C21.9 18.5 22.9 17.5 24.1 17.5Z" fill="url(#paint2_linear_1_96)"/>
<path d="M13.1 17.5H17.5V21.9H13.1V17.5Z" fill="url(#paint3_linear_1_96)"/>
<path d="M13.1 26.2H17.5V30.6H13.1V26.2Z" fill="url(#paint4_linear_1_96)"/>
<path d="M13.1 35H17.5V39.4H13.1V35Z" fill="url(#paint5_linear_1_96)"/>
<path d="M13.1 43.8H17.5V48.2H13.1V43.8Z" fill="url(#paint6_linear_1_96)"/>
<path d="M24.1 26.2H37.2C38.4 26.2 39.4 27.2 39.4 28.4C39.4 29.6 38.4 30.6 37.2 30.6H24.1C22.9 30.6 21.9 29.6 21.9 28.4C21.9 27.2 22.9 26.2 24.1 26.2Z" fill="url(#paint7_linear_1_96)"/>
<path d="M24.1 35H28.5C29.7 35 30.7 36 30.7 37.2C30.7 38.4 29.7 39.4 28.5 39.4H24.1C22.9 39.4 21.9 38.4 21.9 37.2C21.9 36 22.9 35 24.1 35Z" fill="url(#paint8_linear_1_96)"/>
</g>
<defs>
<linearGradient id="paint0_linear_1_96" x1="63.3718" y1="92.865" x2="-34.8789" y2="32.3752" gradientUnits="userSpaceOnUse">
<stop stop-color="#222429"/>
<stop offset="1" stop-color="#383A3E"/>
</linearGradient>
<linearGradient id="paint1_linear_1_96" x1="71.7931" y1="113.58" x2="18.065" y2="94.7027" gradientUnits="userSpaceOnUse">
<stop stop-color="#0B936A"/>
<stop offset="1" stop-color="#33B78F"/>
</linearGradient>
<linearGradient id="paint2_linear_1_96" x1="44.7967" y1="26.7668" x2="36.5292" y2="12.309" gradientUnits="userSpaceOnUse">
<stop stop-color="#0B936A"/>
<stop offset="1" stop-color="#33B78F"/>
</linearGradient>
<linearGradient id="paint3_linear_1_96" x1="17.7003" y1="26.7668" x2="11.7002" y2="24.6587" gradientUnits="userSpaceOnUse">
<stop stop-color="#0B936A"/>
<stop offset="1" stop-color="#33B78F"/>
</linearGradient>
<linearGradient id="paint4_linear_1_96" x1="17.7003" y1="35.4668" x2="11.7002" y2="33.3587" gradientUnits="userSpaceOnUse">
<stop stop-color="#0B936A"/>
<stop offset="1" stop-color="#33B78F"/>
</linearGradient>
<linearGradient id="paint5_linear_1_96" x1="17.7003" y1="44.2668" x2="11.7002" y2="42.1587" gradientUnits="userSpaceOnUse">
<stop stop-color="#0B936A"/>
<stop offset="1" stop-color="#33B78F"/>
</linearGradient>
<linearGradient id="paint6_linear_1_96" x1="17.7003" y1="53.0668" x2="11.7002" y2="50.9587" gradientUnits="userSpaceOnUse">
<stop stop-color="#0B936A"/>
<stop offset="1" stop-color="#33B78F"/>
</linearGradient>
<linearGradient id="paint7_linear_1_96" x1="40.1964" y1="35.4668" x2="31.1168" y2="22.7788" gradientUnits="userSpaceOnUse">
<stop stop-color="#0B936A"/>
<stop offset="1" stop-color="#33B78F"/>
</linearGradient>
<linearGradient id="paint8_linear_1_96" x1="31.1005" y1="44.2668" x2="22.0754" y2="37.9249" gradientUnits="userSpaceOnUse">
<stop stop-color="#0B936A"/>
<stop offset="1" stop-color="#33B78F"/>
</linearGradient>
<clipPath id="clip0_1_96">
<rect width="70" height="70" fill="white"/>
</clipPath>
</defs>
</svg>
