<svg width="70" height="70" viewBox="0 0 70 70" fill="none" xmlns="http://www.w3.org/2000/svg">
<path d="M47.7 58.1H9.5C7.2 58.1 5.3 56.2 5.3 53.9V4.7C5.3 2.4 7.2 0.5 9.5 0.5H47.7C50 0.5 51.9 2.4 51.9 4.7V53.9C51.9 56.2 50 58.1 47.7 58.1Z" fill="url(#paint0_linear_1_76)"/>
<path d="M47.7 0.599998H43.5C45.8 0.599998 47.7 2.5 47.7 4.8V54C47.7 56.3 45.8 58.2 43.5 58.2H47.7C50 58.2 51.9 56.3 51.9 54V4.7C51.9 2.4 50 0.599998 47.7 0.599998Z" fill="#9DDDCA"/>
<path d="M51.3 69.4H4.7C2.4 69.4 0.5 67.5 0.5 65.2V29.7C0.5 27.4 2.4 25.5 4.7 25.5H25C26.7 25.5 28.1 26.6 28.5 28.2L29.2 31.1C29.6 32.7 31 33.8 32.7 33.8H51.3C53.6 33.8 55.5 35.7 55.5 38V65.3C55.4 67.6 53.6 69.4 51.3 69.4Z" fill="url(#paint1_linear_1_76)"/>
<path d="M51.3 33.8H47.1C49.4 33.8 51.3 35.7 51.3 38V65.3C51.3 67.6 49.4 69.5 47.1 69.5H51.3C53.6 69.5 55.5 67.6 55.5 65.3V38C55.4 35.7 53.6 33.8 51.3 33.8Z" fill="url(#paint2_linear_1_76)"/>
<path d="M24.3 28.2L25 31.1C25.4 32.7 26.8 33.8 28.5 33.8H32.7C31 33.8 29.6 32.7 29.2 31.1L28.5 28.2C28.1 26.6 26.7 25.5 25 25.5H20.8C22.5 25.5 23.9 26.6 24.3 28.2Z" fill="url(#paint3_linear_1_76)"/>
<path d="M42.8 7.8H12.7C12.1 7.8 11.7 7.3 11.7 6.8C11.7 6.3 12.2 5.8 12.7 5.8H42.8C43.4 5.8 43.8 6.3 43.8 6.8C43.8 7.3 43.4 7.8 42.8 7.8Z" fill="white"/>
<path d="M36.6 14.1H12.7C12.1 14.1 11.7 13.6 11.7 13.1C11.7 12.5 12.2 12.1 12.7 12.1H36.6C37.2 12.1 37.6 12.6 37.6 13.1C37.6 13.6 37.1 14.1 36.6 14.1Z" fill="white"/>
<path d="M34.5 20.3H12.7C12.1 20.3 11.7 19.8 11.7 19.3C11.7 18.8 12.2 18.3 12.7 18.3H34.5C35.1 18.3 35.5 18.8 35.5 19.3C35.5 19.8 35.1 20.3 34.5 20.3Z" fill="white"/>
<path d="M45.6 44.3L40.9 41.6L46.6 31.8L51.3 34.5L45.6 44.3Z" fill="#E9E9EA"/>
<path d="M33 60.8C35.2 62.1 38.1 61.3 39.4 59.1L47.7 44.8C48.2 43.9 47.9 42.6 47 42.1L42.3 39.4C41.4 38.9 40.1 39.2 39.6 40.1L31.3 54.4C30 56.7 30.7 59.5 33 60.8Z" fill="#4E5054"/>
<path d="M46.9 42.1L42.2 39.4C41.3 38.9 40 39.2 39.5 40.1V40.2L42.8 42.1C43.7 42.6 44.1 43.9 43.5 44.8L35.2 59.1C34.7 59.9 34 60.6 33.2 60.9C35.4 62 38.1 61.2 39.3 59.1L47.6 44.8C48.2 43.8 47.8 42.6 46.9 42.1Z" fill="#222429"/>
<path d="M43.5 37.1C44.9 38.2 46.5 39.1 48.2 39.8L51.3 34.5L46.6 31.8L43.5 37.1Z" fill="#BDBDBF"/>
<path d="M54.6 38.2C62.7738 38.2 69.4 31.5738 69.4 23.4C69.4 15.2262 62.7738 8.6 54.6 8.6C46.4262 8.6 39.8 15.2262 39.8 23.4C39.8 31.5738 46.4262 38.2 54.6 38.2Z" fill="url(#paint4_linear_1_76)"/>
<path d="M56.8238 32.3324C61.7554 31.1084 64.7611 26.1183 63.537 21.1866C62.313 16.255 57.3229 13.2494 52.3912 14.4734C47.4596 15.6974 44.454 20.6875 45.678 25.6192C46.902 30.5508 51.8922 33.5564 56.8238 32.3324Z" fill="#E9E9EA"/>
<defs>
<linearGradient id="paint0_linear_1_76" x1="57.2003" y1="77.4117" x2="-24.7965" y2="28.6741" gradientUnits="userSpaceOnUse">
<stop stop-color="#222429"/>
<stop offset="1" stop-color="#383A3E"/>
</linearGradient>
<linearGradient id="paint1_linear_1_76" x1="58.0031" y1="117.957" x2="-12.5802" y2="86.8876" gradientUnits="userSpaceOnUse">
<stop stop-color="#0B936A"/>
<stop offset="1" stop-color="#33B78F"/>
</linearGradient>
<linearGradient id="paint2_linear_1_76" x1="55.8823" y1="108.987" x2="43.1009" y2="107.931" gradientUnits="userSpaceOnUse">
<stop stop-color="#49BF9C"/>
<stop offset="1" stop-color="#D2EFE6"/>
</linearGradient>
<linearGradient id="paint3_linear_1_76" x1="33.2416" y1="42.9806" x2="18.7007" y2="35.6557" gradientUnits="userSpaceOnUse">
<stop stop-color="#49BF9C"/>
<stop offset="1" stop-color="#D2EFE6"/>
</linearGradient>
<linearGradient id="paint4_linear_1_76" x1="70.7471" y1="70.9403" x2="30.3828" y2="56.7583" gradientUnits="userSpaceOnUse">
<stop stop-color="#0B936A"/>
<stop offset="1" stop-color="#33B78F"/>
</linearGradient>
</defs>
</svg>
