<svg width="100" height="100" viewBox="0 0 100 100" fill="none" xmlns="http://www.w3.org/2000/svg">
<path d="M50 97.7C76.7858 97.7 98.5 75.9858 98.5 49.2C98.5 22.4142 76.7858 0.700012 50 0.700012C23.2142 0.700012 1.5 22.4142 1.5 49.2C1.5 75.9858 23.2142 97.7 50 97.7Z" fill="#E9E9EA"/>
<path d="M69.8 18.4H35.4V30.3H73.8C74.3 30.3 74.8 29.9 74.8 29.3V23.4C74.8 20.6 72.6 18.4 69.8 18.4Z" fill="#77CFB5"/>
<path d="M65.1 18.4H36.2C31.8 18.4 28.3 21.9 28.3 26.3V72.7C28.3 73.2 28.7 73.7 29.3 73.7H63.9C64.4 73.7 64.9 73.3 64.9 72.7V23.3C64.9 20.6 67.1 18.4 69.8 18.4H65.1Z" fill="url(#paint0_linear_1_274)"/>
<path d="M47.4 31.2H34.5C34 31.2 33.5 30.8 33.5 30.2C33.5 29.7 33.9 29.2 34.5 29.2H47.3C47.8 29.2 48.3 29.6 48.3 30.2C48.4 30.8 47.9 31.2 47.4 31.2Z" fill="white"/>
<path d="M41.4 40.1H34.5C34 40.1 33.5 39.7 33.5 39.1C33.5 38.6 33.9 38.1 34.5 38.1H41.4C41.9 38.1 42.4 38.5 42.4 39.1C42.4 39.7 42 40.1 41.4 40.1Z" fill="white"/>
<path d="M47.4 49H34.5C34 49 33.5 48.6 33.5 48C33.5 47.5 33.9 47 34.5 47H47.3C47.8 47 48.3 47.4 48.3 48C48.4 48.6 47.9 49 47.4 49Z" fill="white"/>
<path d="M58.2 31.2H51.3C50.8 31.2 50.3 30.8 50.3 30.2C50.3 29.7 50.7 29.2 51.3 29.2H58.2C58.7 29.2 59.2 29.6 59.2 30.2C59.2 30.8 58.8 31.2 58.2 31.2Z" fill="white"/>
<path d="M58.2 40.1H45.4C44.9 40.1 44.4 39.7 44.4 39.1C44.4 38.6 44.8 38.1 45.4 38.1H58.2C58.7 38.1 59.2 38.5 59.2 39.1C59.2 39.7 58.8 40.1 58.2 40.1Z" fill="white"/>
<path d="M58.2 49H51.3C50.8 49 50.3 48.6 50.3 48C50.3 47.5 50.7 47 51.3 47H58.2C58.7 47 59.2 47.4 59.2 48C59.2 48.6 58.8 49 58.2 49Z" fill="white"/>
<path d="M47.4 57.9H34.5C34 57.9 33.5 57.5 33.5 56.9C33.5 56.4 33.9 55.9 34.5 55.9H47.3C47.8 55.9 48.3 56.3 48.3 56.9C48.4 57.5 47.9 57.9 47.4 57.9Z" fill="white"/>
<path d="M53.3 57.9H51.3C50.8 57.9 50.3 57.5 50.3 56.9C50.3 56.4 50.7 55.9 51.3 55.9H53.3C53.8 55.9 54.3 56.3 54.3 56.9C54.3 57.5 53.8 57.9 53.3 57.9Z" fill="white"/>
<path d="M44.8 60.2L41.3 59.5C41.2 59.1 41 58.7 40.8 58.3L42.8 55.4C42.9 55.2 42.9 54.9 42.7 54.8L39.6 51.7C39.4 51.5 39.2 51.5 39 51.6L36.1 53.6C35.7 53.4 35.3 53.2 34.9 53.1L34.2 49.6C34.2 49.4 34 49.2 33.7 49.2H29.3C29.1 49.2 28.9 49.4 28.8 49.6L28.1 53.1C27.7 53.2 27.3 53.4 26.9 53.6L24 51.6C23.8 51.5 23.5 51.5 23.4 51.7L20.3 54.8C20 55 20 55.2 20.1 55.4L22.1 58.3C21.9 58.7 21.7 59.1 21.6 59.5L18.1 60.2C17.9 60.2 17.7 60.4 17.7 60.7V65.1C17.7 65.3 17.9 65.5 18.1 65.6L21.6 66.3C21.7 66.7 21.9 67.1 22.1 67.5L20.1 70.4C20 70.6 20 70.9 20.2 71L23.3 74.1C23.5 74.3 23.7 74.3 23.9 74.2L26.8 72.2C27.2 72.4 27.6 72.6 28 72.7L28.7 76.2C28.7 76.4 28.9 76.6 29.2 76.6H33.6C33.8 76.6 34 76.4 34.1 76.2L34.8 72.7C35.2 72.6 35.6 72.4 36 72.2L38.9 74.2C39.1 74.3 39.4 74.3 39.5 74.1L42.6 71C42.8 70.8 42.8 70.6 42.7 70.4L40.7 67.5C40.9 67.1 41.1 66.7 41.2 66.3L44.7 65.6C44.9 65.6 45.1 65.4 45.1 65.1V60.7C45.1 60.5 45 60.3 44.8 60.2ZM35.4 62.9C35.4 65.1 33.6 66.8 31.5 66.8C29.3 66.8 27.6 65 27.6 62.9C27.6 60.8 29.4 59 31.5 59C33.6 59 35.4 60.8 35.4 62.9Z" fill="url(#paint1_linear_1_274)"/>
<path d="M31.4 56C27.6 56 24.5 59.1 24.5 62.9C24.5 66.7 27.6 69.8 31.4 69.8C35.2 69.8 38.3 66.7 38.3 62.9C38.3 59.1 35.3 56 31.4 56ZM31.4 66.8C29.2 66.8 27.5 65 27.5 62.9C27.5 60.8 29.3 59 31.4 59C33.6 59 35.3 60.8 35.3 62.9C35.3 65 33.6 66.8 31.4 66.8Z" fill="#EAF6FF"/>
<path d="M86.7 39.7L62.7 39.4C62 39.4 61.5 39.9 61.5 40.6L61 75.2C61 75.9 61.5 76.4 62.2 76.4L86.2 76.7C86.9 76.7 87.4 76.2 87.4 75.5L87.9 40.9C88 40.3 87.4 39.7 86.7 39.7Z" fill="#77CFB5"/>
<path d="M83.9 36.8L83.4 71.4C83.4 72.1 82.8 72.6 82.2 72.6L58.2 72.3C57.5 72.3 57 71.7 57 71.1L57.5 36.5C57.5 35.8 58.1 35.3 58.7 35.3L82.7 35.6C83.4 35.6 83.9 36.1 83.9 36.8Z" fill="url(#paint2_linear_1_274)"/>
<path d="M74.5 56.4C74.5 55.2 74 54.3 73.1 53.6C72.4 53.1 71.6 52.8 70.8 52.6C70.7 52.6 70.4 52.5 70.4 52.5C69.2 52.1 69.1 51.8 69.1 51.5C69.1 50.7 69.8 50.6 70.3 50.6C70.9 50.6 71.7 50.9 71.7 51.4C71.7 52.2 72.3 52.8 73.1 52.8C73.9 52.8 74.5 52.2 74.5 51.4C74.5 49.8 73.4 48.5 71.8 48V47.3C71.8 46.5 71.2 45.9 70.4 45.9C69.6 45.9 69 46.6 69 47.3V48C67.4 48.5 66.4 49.7 66.4 51.4C66.4 53.9 68.6 54.7 69.7 55.1C69.7 55.1 69.9 55.2 70 55.2C71.6 55.7 71.8 56 71.8 56.4C71.8 57.2 71.1 57.3 70.6 57.3C70 57.3 69.2 57 69.2 56.5C69.2 55.7 68.6 55.1 67.8 55.1C67 55.1 66.4 55.7 66.4 56.5C66.4 58.1 67.5 59.4 69.1 59.9V60.6C69.1 61.4 69.7 62 70.5 62C71.3 62 71.9 61.4 71.9 60.6V59.9C73.5 59.4 74.5 58.1 74.5 56.4Z" fill="white"/>
<defs>
<linearGradient id="paint0_linear_1_274" x1="71.6887" y1="134.867" x2="12.2436" y2="119.193" gradientUnits="userSpaceOnUse">
<stop stop-color="#0B936A"/>
<stop offset="1" stop-color="#33B78F"/>
</linearGradient>
<linearGradient id="paint1_linear_1_274" x1="48.2165" y1="85.7865" x2="5.84267" y2="54.6549" gradientUnits="userSpaceOnUse">
<stop stop-color="#222429"/>
<stop offset="1" stop-color="#383A3E"/>
</linearGradient>
<linearGradient id="paint2_linear_1_274" x1="86.9596" y1="85.1057" x2="36.9451" y2="58.6058" gradientUnits="userSpaceOnUse">
<stop stop-color="#222429"/>
<stop offset="1" stop-color="#383A3E"/>
</linearGradient>
</defs>
</svg>
