<svg width="100" height="100" viewBox="0 0 100 100" fill="none" xmlns="http://www.w3.org/2000/svg">
<path d="M50 97.7C76.7858 97.7 98.5 75.9858 98.5 49.2C98.5 22.4142 76.7858 0.700012 50 0.700012C23.2142 0.700012 1.5 22.4142 1.5 49.2C1.5 75.9858 23.2142 97.7 50 97.7Z" fill="#E9E9EA"/>
<path d="M51.8 64.4H55.4V69H49V66.7H31V69H24.7V64.4H30.6V58.7L18.6 48.4H63.8L51.9 58.7H51.8V64.4Z" fill="url(#paint0_linear_1_333)"/>
<path d="M17.2 45.1H44.1L44.8 48.4H17.7L17.2 45.1Z" fill="url(#paint1_linear_1_333)"/>
<path d="M36.9 41.9H31.6C31.3 41.9 31 41.6 31 41.3V31.1C31 30.8 31.3 30.5 31.6 30.5H36.9C37.2 30.5 37.5 30.8 37.5 31.1V41.4C37.5 41.7 37.2 41.9 36.9 41.9Z" fill="url(#paint2_linear_1_333)"/>
<path d="M55 34.7H37.5V37.5H55V34.7Z" fill="url(#paint3_linear_1_333)"/>
<path d="M24 34.4C25 35.8 29.5 42.8 29.5 42.8L21.3 37L24 34.4Z" fill="url(#paint4_linear_1_333)"/>
<path d="M28.5 36.4H27.8C27.7 36.4 27.6 36.3 27.6 36.2V33C27.6 32.9 27.7 32.8 27.8 32.8H28.5C28.6 32.8 28.7 32.9 28.7 33V36.2C28.7 36.3 28.6 36.4 28.5 36.4Z" fill="url(#paint5_linear_1_333)"/>
<path d="M23.3 42.5L23 43.1C22.9 43.2 22.8 43.2 22.7 43.2L19.9 41.6C19.8 41.5 19.8 41.4 19.8 41.3L20.1 40.7C20.2 40.6 20.3 40.6 20.4 40.6L23.2 42.2C23.3 42.3 23.4 42.4 23.3 42.5Z" fill="url(#paint6_linear_1_333)"/>
<path d="M72.6 54.2C79.3931 54.2 84.9 48.6931 84.9 41.9C84.9 35.1069 79.3931 29.6 72.6 29.6C65.8069 29.6 60.3 35.1069 60.3 41.9C60.3 48.6931 65.8069 54.2 72.6 54.2Z" fill="url(#paint7_linear_1_333)"/>
<path d="M83.6 51.8C85.3121 51.8 86.7 50.4121 86.7 48.7C86.7 46.9879 85.3121 45.6 83.6 45.6C81.8879 45.6 80.5 46.9879 80.5 48.7C80.5 50.4121 81.8879 51.8 83.6 51.8Z" fill="url(#paint8_linear_1_333)"/>
<path d="M61.9 51.8C63.6121 51.8 65 50.4121 65 48.7C65 46.9879 63.6121 45.6 61.9 45.6C60.1879 45.6 58.8 46.9879 58.8 48.7C58.8 50.4121 60.1879 51.8 61.9 51.8Z" fill="url(#paint9_linear_1_333)"/>
<path d="M72.6 32.7C74.3121 32.7 75.7 31.3121 75.7 29.6C75.7 27.8879 74.3121 26.5 72.6 26.5C70.8879 26.5 69.5 27.8879 69.5 29.6C69.5 31.3121 70.8879 32.7 72.6 32.7Z" fill="url(#paint10_linear_1_333)"/>
<path d="M83.9 51.8C85.6121 51.8 87 50.4121 87 48.7C87 46.9879 85.6121 45.6 83.9 45.6C82.1879 45.6 80.8 46.9879 80.8 48.7C80.8 50.4121 82.1879 51.8 83.9 51.8Z" fill="url(#paint11_linear_1_333)"/>
<path d="M65 44.4V38.1H66L68.3 41.3C68.8 42 69.2 42.7 69.6 43.3C69.5 42.5 69.5 41.7 69.5 40.7V38.1H70.4V44.4H69.5L67.2 41.2C66.7 40.5 66.2 39.8 65.9 39.1C66 39.9 66 40.7 66 41.7V44.4H65Z" fill="#E8F7F3"/>
<path d="M71.9 38.1H75.7V38.8H72.8V40.9H75.5V41.6H72.8V44.5H71.9V38.1V38.1Z" fill="#E8F7F3"/>
<path d="M78.4 38.8H76.2V38.1H81.5V38.8H79.3V44.4H78.4V38.8V38.8Z" fill="#E8F7F3"/>
<path d="M44.2 59.4C44.2 58.5 43.8 57.8 43.2 57.3C42.7 56.9 42.1 56.7 41.5 56.5C41.4 56.5 41.2 56.4 41.2 56.4C40.3 56.1 40.3 55.9 40.3 55.6C40.3 55 40.8 55 41.2 55C41.6 55 42.2 55.2 42.2 55.6C42.2 56.2 42.7 56.6 43.2 56.6C43.7 56.6 44.2 56.1 44.2 55.6C44.2 54.4 43.4 53.5 42.2 53.1V52.6C42.2 52 41.7 51.6 41.2 51.6C40.7 51.6 40.2 52.1 40.2 52.6V53.1C39 53.4 38.3 54.4 38.3 55.6C38.3 57.5 39.9 58.1 40.7 58.3L40.9 58.4C42.1 58.8 42.3 59 42.3 59.3C42.3 59.9 41.8 59.9 41.4 59.9C41 59.9 40.4 59.7 40.4 59.3C40.4 58.7 39.9 58.3 39.4 58.3C38.9 58.3 38.4 58.8 38.4 59.3C38.4 60.5 39.2 61.4 40.4 61.8V62.3C40.4 62.9 40.9 63.3 41.4 63.3C41.9 63.3 42.4 62.8 42.4 62.3V61.8C43.4 61.5 44.2 60.6 44.2 59.4Z" fill="#E8F7F3"/>
<defs>
<linearGradient id="paint0_linear_1_333" x1="65.8571" y1="91.7855" x2="22.424" y2="58.302" gradientUnits="userSpaceOnUse">
<stop stop-color="#0B936A"/>
<stop offset="1" stop-color="#33B78F"/>
</linearGradient>
<linearGradient id="paint1_linear_1_333" x1="46.0561" y1="52.0501" x2="41.6677" y2="39.1544" gradientUnits="userSpaceOnUse">
<stop stop-color="#0B936A"/>
<stop offset="1" stop-color="#33B78F"/>
</linearGradient>
<linearGradient id="paint2_linear_1_333" x1="37.7958" y1="54.5094" x2="28.2221" y2="52.5915" gradientUnits="userSpaceOnUse">
<stop stop-color="#0B936A"/>
<stop offset="1" stop-color="#33B78F"/>
</linearGradient>
<linearGradient id="paint3_linear_1_333" x1="56.9904" y1="38.4388" x2="55.1036" y2="29.7745" gradientUnits="userSpaceOnUse">
<stop stop-color="#222429"/>
<stop offset="1" stop-color="#383A3E"/>
</linearGradient>
<linearGradient id="paint4_linear_1_333" x1="30.4327" y1="45.6163" x2="17.5388" y2="36.3688" gradientUnits="userSpaceOnUse">
<stop stop-color="#222429"/>
<stop offset="1" stop-color="#383A3E"/>
</linearGradient>
<linearGradient id="paint5_linear_1_333" x1="28.8251" y1="37.607" x2="26.3314" y2="37.0472" gradientUnits="userSpaceOnUse">
<stop stop-color="#222429"/>
<stop offset="1" stop-color="#383A3E"/>
</linearGradient>
<linearGradient id="paint6_linear_1_333" x1="23.7442" y1="44.0717" x2="19.5307" y2="39.8552" gradientUnits="userSpaceOnUse">
<stop stop-color="#222429"/>
<stop offset="1" stop-color="#383A3E"/>
</linearGradient>
<linearGradient id="paint7_linear_1_333" x1="87.698" y1="62.4477" x2="49.6544" y2="34.4974" gradientUnits="userSpaceOnUse">
<stop stop-color="#222429"/>
<stop offset="1" stop-color="#383A3E"/>
</linearGradient>
<linearGradient id="paint8_linear_1_333" x1="87.4052" y1="53.8787" x2="77.817" y2="46.8343" gradientUnits="userSpaceOnUse">
<stop stop-color="#222429"/>
<stop offset="1" stop-color="#383A3E"/>
</linearGradient>
<linearGradient id="paint9_linear_1_333" x1="65.2822" y1="58.6578" x2="56.8275" y2="55.6872" gradientUnits="userSpaceOnUse">
<stop stop-color="#0B936A"/>
<stop offset="1" stop-color="#33B78F"/>
</linearGradient>
<linearGradient id="paint10_linear_1_333" x1="75.9822" y1="39.5578" x2="67.5275" y2="36.5872" gradientUnits="userSpaceOnUse">
<stop stop-color="#0B936A"/>
<stop offset="1" stop-color="#33B78F"/>
</linearGradient>
<linearGradient id="paint11_linear_1_333" x1="87.2822" y1="58.6578" x2="78.8275" y2="55.6872" gradientUnits="userSpaceOnUse">
<stop stop-color="#0B936A"/>
<stop offset="1" stop-color="#33B78F"/>
</linearGradient>
</defs>
</svg>
