<svg width="100" height="100" viewBox="0 0 100 100" fill="none" xmlns="http://www.w3.org/2000/svg">
<path d="M50 97.7C76.7858 97.7 98.5 75.9858 98.5 49.2C98.5 22.4142 76.7858 0.700012 50 0.700012C23.2142 0.700012 1.5 22.4142 1.5 49.2C1.5 75.9858 23.2142 97.7 50 97.7Z" fill="#E9E9EA"/>
<path d="M23.5 75.3V60.3C23.5 56.5 25.9 53 29.4 51.6L35.5 49.3L41.1 54.9L46.7 49.3L52.8 51.6C56.1 52.9 58.4 55.9 58.7 59.4V75.2H23.5V75.3Z" fill="url(#paint0_linear_1_292)"/>
<path d="M75.4 74.4H51.3C49.3 74.4 47.6 72.7 47.6 70.7V63.3C47.6 61.3 49.3 59.6 51.3 59.6H75.4C77.4 59.6 79.1 61.3 79.1 63.3V70.7C79.1 72.7 77.5 74.4 75.4 74.4Z" fill="url(#paint1_linear_1_292)"/>
<path d="M76.3 70.7V63.3C76.3 61.3 74.6 59.6 72.6 59.6H51.3C49.3 59.6 47.6 61.3 47.6 63.3V70.7C47.6 72.7 49.3 74.4 51.3 74.4H72.6C74.7 74.4 76.3 72.7 76.3 70.7Z" fill="url(#paint2_linear_1_292)"/>
<path d="M40.9 54.9L37.2 58.6L30 51.4L35.4 49.3L40.9 54.9Z" fill="url(#paint3_linear_1_292)"/>
<path d="M41.1 54.9L44.8 58.6L52 51.4L46.6 49.3L41.1 54.9Z" fill="url(#paint4_linear_1_292)"/>
<path d="M43.9 57.7L42 59.5H40.1L38.2 57.6L41 54.8L43.9 57.7Z" fill="white"/>
<path d="M42 59.5L43.9 71.5L41.1 74.3L38.3 71.5L40.2 59.5" fill="white"/>
<path d="M46.7 42.9V49.4L41.1 55L35.5 49.4V42.9H46.7Z" fill="#8DD7C1"/>
<path d="M39.7 53.5L43.9 49.3V42.8H35.6V49.3L39.7 53.5Z" fill="#BBE7DA"/>
<path d="M49.5 31.7V38.2C49.5 42.8 45.8 46.5 41.2 46.5C36.6 46.5 32.9 42.8 32.9 38.2V31.7" fill="#8DD7C1"/>
<path d="M39.7 46.4C43.6 45.7 46.7 42.3 46.7 38.2V31.7H32.8V38.2C32.8 42.4 35.8 45.8 39.7 46.4Z" fill="#BBE7DA"/>
<path d="M29.1 28H53.2V31.7H29.1V28Z" fill="url(#paint5_linear_1_292)"/>
<path d="M29.1 28H50.4V31.7H29.1V28Z" fill="url(#paint6_linear_1_292)"/>
<path d="M32.8 28L34.7 18.7H47.7L49.6 28" fill="url(#paint7_linear_1_292)"/>
<path d="M71.7 26.2C71.7 30.3 68.4 33.6 64.3 33.6C60.2 33.6 56.9 30.3 56.9 26.2C56.9 22.1 60.2 18.8 64.3 18.8C68.4 18.8 71.7 22.1 71.7 26.2Z" fill="url(#paint8_linear_1_292)"/>
<path d="M79.1 46.6C79.1 50.7 75.8 54 71.7 54C67.6 54 64.3 50.7 64.3 46.6C64.3 42.5 67.6 39.2 71.7 39.2C75.8 39.2 79.1 42.5 79.1 46.6Z" fill="url(#paint9_linear_1_292)"/>
<path d="M41.1 43.8C39.1 43.8 37.4 42.1 37.4 40.1H39.3C39.3 41.1 40.1 42 41.2 42C42.2 42 43.1 41.2 43.1 40.1H45C44.8 42.1 43.2 43.8 41.1 43.8Z" fill="url(#paint10_linear_1_292)"/>
<path d="M36.9 37.3C36.1 37.3 35.5 36.7 35.5 35.9C35.5 35.1 36.1 34.5 36.9 34.5C37.7 34.5 38.3 35.1 38.3 35.9C38.3 36.7 37.7 37.3 36.9 37.3Z" fill="url(#paint11_linear_1_292)"/>
<path d="M45.3 37.3C44.5 37.3 43.9 36.7 43.9 35.9C43.9 35.1 44.5 34.5 45.3 34.5C46.1 34.5 46.7 35.1 46.7 35.9C46.7 36.7 46 37.3 45.3 37.3Z" fill="url(#paint12_linear_1_292)"/>
<path d="M55 71.6H50.4V69.7H54.1V67.8H51.3C50.8 67.8 50.4 67.4 50.4 66.9V63.2C50.4 62.7 50.8 62.3 51.3 62.3H55.9V64.2H52.2V66H55C55.5 66 55.9 66.4 55.9 66.9V70.6C55.9 71.2 55.5 71.6 55 71.6Z" fill="white"/>
<path d="M63.4 71.6H61.5V64.2H59.6V71.6H57.7V63.3C57.7 62.8 58.1 62.4 58.6 62.4H62.3C62.8 62.4 63.2 62.8 63.2 63.3V71.6H63.4Z" fill="white"/>
<path d="M58.7 67.9H62.4V69.8H58.7V67.9Z" fill="white"/>
<path d="M69.8 71.6H66.1C65.6 71.6 65.2 71.2 65.2 70.7V62.4H67.1V69.8H69.9V71.6H69.8Z" fill="white"/>
<path d="M76.3 71.6H72.6C72.1 71.6 71.7 71.2 71.7 70.7V63.3C71.7 62.8 72.1 62.4 72.6 62.4H76.3V64.3H73.5V69.9H76.3V71.6Z" fill="white"/>
<path d="M72.6 66H76.3V67.9H72.6V66Z" fill="white"/>
<path d="M64.3 30.8H61.5V29H64.3C64.8 29 65.2 28.6 65.2 28.1C65.2 27.6 64.8 27.2 64.3 27.2C62.8 27.2 61.5 26 61.5 24.4C61.5 22.8 62.7 21.6 64.3 21.6H67.1V23.5H64.3C63.8 23.5 63.4 23.9 63.4 24.4C63.4 24.9 63.8 25.3 64.3 25.3C65.8 25.3 67.1 26.5 67.1 28.1C67.1 29.7 65.8 30.8 64.3 30.8Z" fill="white"/>
<path d="M65.2 18.8C64.9 18.8 64.6 18.7 64.3 18.7C64 18.7 63.7 18.7 63.4 18.8V22.4H65.3V18.8H65.2Z" fill="white"/>
<path d="M63.4 33.5C63.7 33.5 64 33.6 64.3 33.6C64.6 33.6 64.9 33.6 65.2 33.5V29.9H63.3V33.5H63.4Z" fill="white"/>
<path d="M71.7 51.2H68.9V49.3H71.7C72.2 49.3 72.6 48.9 72.6 48.4C72.6 47.9 72.2 47.5 71.7 47.5C70.2 47.5 68.9 46.3 68.9 44.7C68.9 43.1 70.1 41.9 71.7 41.9H74.5V43.8H71.7C71.2 43.8 70.8 44.2 70.8 44.7C70.8 45.2 71.2 45.6 71.7 45.6C73.2 45.6 74.5 46.8 74.5 48.4C74.5 50 73.2 51.2 71.7 51.2Z" fill="white"/>
<path d="M72.6 39.2C72.3 39.2 72 39.1 71.7 39.1C71.4 39.1 71.1 39.1 70.8 39.2V42.8H72.7V39.2H72.6Z" fill="white"/>
<path d="M70.8 53.9C71.1 53.9 71.4 54 71.7 54C72 54 72.3 54 72.6 53.9V50.3H70.7V53.9H70.8Z" fill="white"/>
<path d="M54.1 38.2H56V40.1H54.1V38.2Z" fill="url(#paint13_linear_1_292)"/>
<path d="M52.2 40.1H54.1V42H52.2V40.1Z" fill="url(#paint14_linear_1_292)"/>
<path d="M55.9 40.1H57.8V42H55.9V40.1Z" fill="url(#paint15_linear_1_292)"/>
<path d="M54.1 41.9H56V43.8H54.1V41.9Z" fill="url(#paint16_linear_1_292)"/>
<path d="M76.3 31.7H78.2V33.6H76.3V31.7Z" fill="url(#paint17_linear_1_292)"/>
<path d="M74.5 33.6H76.4V35.5H74.5V33.6Z" fill="url(#paint18_linear_1_292)"/>
<path d="M78.2 33.6H80V35.5H78.1V33.6H78.2Z" fill="url(#paint19_linear_1_292)"/>
<path d="M76.3 35.5H78.2V37.4H76.3V35.5Z" fill="url(#paint20_linear_1_292)"/>
<defs>
<linearGradient id="paint0_linear_1_292" x1="60.302" y1="104.058" x2="16.3259" y2="83.1402" gradientUnits="userSpaceOnUse">
<stop stop-color="#0B936A"/>
<stop offset="1" stop-color="#33B78F"/>
</linearGradient>
<linearGradient id="paint1_linear_1_292" x1="82.6828" y1="79.3621" x2="60.9105" y2="45.3167" gradientUnits="userSpaceOnUse">
<stop stop-color="#222429"/>
<stop offset="1" stop-color="#383A3E"/>
</linearGradient>
<linearGradient id="paint2_linear_1_292" x1="79.5643" y1="79.3621" x2="57.0078" y2="47.2256" gradientUnits="userSpaceOnUse">
<stop stop-color="#222429"/>
<stop offset="1" stop-color="#383A3E"/>
</linearGradient>
<linearGradient id="paint3_linear_1_292" x1="42.1398" y1="61.718" x2="27.2354" y2="48.8841" gradientUnits="userSpaceOnUse">
<stop stop-color="#222429"/>
<stop offset="1" stop-color="#383A3E"/>
</linearGradient>
<linearGradient id="paint4_linear_1_292" x1="53.2398" y1="61.718" x2="38.3355" y2="48.8841" gradientUnits="userSpaceOnUse">
<stop stop-color="#222429"/>
<stop offset="1" stop-color="#383A3E"/>
</linearGradient>
<linearGradient id="paint5_linear_1_292" x1="54.2968" y1="35.7925" x2="48.3774" y2="22.2459" gradientUnits="userSpaceOnUse">
<stop stop-color="#0B936A"/>
<stop offset="1" stop-color="#33B78F"/>
</linearGradient>
<linearGradient id="paint6_linear_1_292" x1="51.3694" y1="35.7925" x2="44.9598" y2="22.8283" gradientUnits="userSpaceOnUse">
<stop stop-color="#0B936A"/>
<stop offset="1" stop-color="#33B78F"/>
</linearGradient>
<linearGradient id="paint7_linear_1_292" x1="50.3646" y1="38.2867" x2="32.0178" y2="26.6421" gradientUnits="userSpaceOnUse">
<stop stop-color="#0B936A"/>
<stop offset="1" stop-color="#33B78F"/>
</linearGradient>
<linearGradient id="paint8_linear_1_292" x1="72.3735" y1="49.9701" x2="52.1914" y2="42.8792" gradientUnits="userSpaceOnUse">
<stop stop-color="#0B936A"/>
<stop offset="1" stop-color="#33B78F"/>
</linearGradient>
<linearGradient id="paint9_linear_1_292" x1="79.7735" y1="70.3702" x2="59.5914" y2="63.2792" gradientUnits="userSpaceOnUse">
<stop stop-color="#0B936A"/>
<stop offset="1" stop-color="#33B78F"/>
</linearGradient>
<linearGradient id="paint10_linear_1_292" x1="45.8644" y1="45.0405" x2="40.3425" y2="36.7074" gradientUnits="userSpaceOnUse">
<stop stop-color="#222429"/>
<stop offset="1" stop-color="#383A3E"/>
</linearGradient>
<linearGradient id="paint11_linear_1_292" x1="38.6185" y1="38.2388" x2="34.2883" y2="35.0574" gradientUnits="userSpaceOnUse">
<stop stop-color="#222429"/>
<stop offset="1" stop-color="#383A3E"/>
</linearGradient>
<linearGradient id="paint12_linear_1_292" x1="47.0185" y1="38.2388" x2="42.6883" y2="35.0574" gradientUnits="userSpaceOnUse">
<stop stop-color="#222429"/>
<stop offset="1" stop-color="#383A3E"/>
</linearGradient>
<linearGradient id="paint13_linear_1_292" x1="56.2161" y1="40.737" x2="53.2778" y2="38.5783" gradientUnits="userSpaceOnUse">
<stop stop-color="#222429"/>
<stop offset="1" stop-color="#383A3E"/>
</linearGradient>
<linearGradient id="paint14_linear_1_292" x1="54.3161" y1="42.637" x2="51.3778" y2="40.4783" gradientUnits="userSpaceOnUse">
<stop stop-color="#222429"/>
<stop offset="1" stop-color="#383A3E"/>
</linearGradient>
<linearGradient id="paint15_linear_1_292" x1="58.0161" y1="42.637" x2="55.0778" y2="40.4783" gradientUnits="userSpaceOnUse">
<stop stop-color="#222429"/>
<stop offset="1" stop-color="#383A3E"/>
</linearGradient>
<linearGradient id="paint16_linear_1_292" x1="56.2161" y1="44.437" x2="53.2778" y2="42.2782" gradientUnits="userSpaceOnUse">
<stop stop-color="#222429"/>
<stop offset="1" stop-color="#383A3E"/>
</linearGradient>
<linearGradient id="paint17_linear_1_292" x1="78.2865" y1="35.7016" x2="75.6955" y2="34.7913" gradientUnits="userSpaceOnUse">
<stop stop-color="#0B936A"/>
<stop offset="1" stop-color="#33B78F"/>
</linearGradient>
<linearGradient id="paint18_linear_1_292" x1="76.4865" y1="37.6016" x2="73.8955" y2="36.6913" gradientUnits="userSpaceOnUse">
<stop stop-color="#0B936A"/>
<stop offset="1" stop-color="#33B78F"/>
</linearGradient>
<linearGradient id="paint19_linear_1_292" x1="80.0865" y1="37.6016" x2="77.4955" y2="36.6913" gradientUnits="userSpaceOnUse">
<stop stop-color="#0B936A"/>
<stop offset="1" stop-color="#33B78F"/>
</linearGradient>
<linearGradient id="paint20_linear_1_292" x1="78.2865" y1="39.5016" x2="75.6955" y2="38.5913" gradientUnits="userSpaceOnUse">
<stop stop-color="#0B936A"/>
<stop offset="1" stop-color="#33B78F"/>
</linearGradient>
</defs>
</svg>
