<svg width="100" height="100" viewBox="0 0 100 100" fill="none" xmlns="http://www.w3.org/2000/svg">
<path d="M50 97.7C76.7858 97.7 98.5 75.9858 98.5 49.2C98.5 22.4142 76.7858 0.700012 50 0.700012C23.2142 0.700012 1.5 22.4142 1.5 49.2C1.5 75.9858 23.2142 97.7 50 97.7Z" fill="#E9E9EA"/>
<path d="M65 80.4C76.8189 80.4 86.4 70.8189 86.4 59C86.4 47.1811 76.8189 37.6 65 37.6C53.1811 37.6 43.6 47.1811 43.6 59C43.6 70.8189 53.1811 80.4 65 80.4Z" fill="url(#paint0_linear_1_258)"/>
<path d="M52.1 72.1L48.9 74.1C48.6 74.3 48.1 74.3 47.8 74.1L44.1 71.7C43.8 71.5 43.3 71.5 43 71.7L39.2 74.1C38.9 74.3 38.4 74.3 38.1 74.1L34.3 71.7C34 71.5 33.5 71.5 33.2 71.7L29.4 74.1C29.1 74.3 28.6 74.3 28.3 74.1L24.5 71.7C24.2 71.5 24 71.2 24 70.8V21.7C24 21.3 24.2 21 24.5 20.8L28.3 18.4C28.6 18.2 29.1 18.2 29.4 18.4L33.2 20.8C33.5 21 34 21 34.3 20.8L38.1 18.4C38.4 18.2 38.9 18.2 39.2 18.4L43 20.8C43.3 21 43.8 21 44.1 20.8L47.8 18.4C48.1 18.2 48.6 18.2 48.9 18.4L52.7 20.8C53 21 53.4 21 53.8 20.8L57.6 18.4C57.9 18.2 58.4 18.2 58.7 18.4L62.5 20.8C62.8 21 63 21.3 63 21.7V40.8L52.1 72.1Z" fill="url(#paint1_linear_1_258)"/>
<path d="M65 77.4C75.162 77.4 83.4 69.162 83.4 59C83.4 48.838 75.162 40.6 65 40.6C54.838 40.6 46.6 48.838 46.6 59C46.6 69.162 54.838 77.4 65 77.4Z" fill="#E8F7F3"/>
<path d="M77.8 54.1L73.9 51.1C73.4 50.7 72.7 50.8 72.3 51.3C72.2 51.5 72.1 51.7 72.1 51.9V52.9H59.9C59.3 52.9 58.9 53.4 58.9 53.9V55.9C58.9 56.5 59.4 56.9 59.9 56.9H72.1V57.9C72.1 58.5 72.7 59 73.3 59C73.5 59 73.8 58.9 73.9 58.8L77.8 55.8C78.2 55.5 78.3 54.8 78 54.4C78 54.2 77.9 54.2 77.8 54.1Z" fill="url(#paint2_linear_1_258)"/>
<path d="M52.1 63.9L56 66.9C56.5 67.3 57.2 67.2 57.6 66.7C57.7 66.5 57.8 66.3 57.8 66.1V65.1H70C70.6 65.1 71 64.6 71 64.1V62.1C71 61.5 70.5 61.1 70 61.1H57.8V60.1C57.8 59.5 57.2 59 56.6 59C56.4 59 56.1 59.1 56 59.2L52.1 62.2C51.7 62.5 51.6 63.2 51.9 63.6C52 63.8 52.1 63.8 52.1 63.9Z" fill="url(#paint3_linear_1_258)"/>
<path d="M35.4 36.7V30.7C36.6 31.1 37.4 32.3 37.4 33.6C37.4 34.2 37.9 34.6 38.4 34.6C38.9 34.6 39.4 34.1 39.4 33.6C39.4 31.2 37.7 29.1 35.3 28.6V27.5C35.3 26.9 34.8 26.5 34.3 26.5C33.7 26.5 33.3 27 33.3 27.5V28.6C30.5 29.2 28.8 31.9 29.3 34.6C29.7 36.6 31.3 38.2 33.3 38.6V44.6C32.1 44.2 31.3 43 31.3 41.7C31.3 41.1 30.8 40.7 30.3 40.7C29.8 40.7 29.3 41.2 29.3 41.7C29.3 44.1 31 46.2 33.4 46.7V47.8C33.4 48.4 33.9 48.8 34.4 48.8C35 48.8 35.4 48.3 35.4 47.8V46.7C38.2 46.1 39.9 43.4 39.4 40.7C39 38.7 37.4 37.1 35.4 36.7ZM31.3 33.5C31.3 32.2 32.1 31.1 33.3 30.6V36.3C32.2 36 31.3 34.8 31.3 33.5ZM35.4 44.5V38.8C37 39.4 37.8 41.1 37.3 42.7C37 43.5 36.3 44.2 35.4 44.5Z" fill="url(#paint4_linear_1_258)"/>
<path d="M57.8 28.4H43.6C43 28.4 42.6 27.9 42.6 27.4C42.6 26.8 43.1 26.4 43.6 26.4H57.9C58.5 26.4 58.9 26.9 58.9 27.4C58.9 28 58.4 28.4 57.8 28.4Z" fill="white"/>
<path d="M57.8 33.5H43.6C43 33.5 42.6 33 42.6 32.5C42.6 31.9 43.1 31.5 43.6 31.5H57.9C58.5 31.5 58.9 32 58.9 32.5C58.9 33.1 58.4 33.5 57.8 33.5Z" fill="white"/>
<path d="M57.8 38.6H43.6C43 38.6 42.6 38.1 42.6 37.6C42.6 37 43.1 36.6 43.6 36.6H57.9C58.5 36.6 58.9 37.1 58.9 37.6C58.9 38.2 58.4 38.6 57.8 38.6Z" fill="white"/>
<path d="M49.7 43.7H43.6C43 43.7 42.6 43.2 42.6 42.7C42.6 42.1 43.1 41.7 43.6 41.7H49.7C50.3 41.7 50.7 42.2 50.7 42.7C50.7 43.3 50.2 43.7 49.7 43.7Z" fill="white"/>
<path d="M45.6 48.8H43.6C43 48.8 42.6 48.3 42.6 47.8C42.6 47.2 43.1 46.8 43.6 46.8H45.6C46.2 46.8 46.6 47.3 46.6 47.8C46.6 48.4 46.2 48.8 45.6 48.8Z" fill="white"/>
<path d="M41.5 54.9H29.3C28.7 54.9 28.3 54.4 28.3 53.9C28.3 53.3 28.8 52.9 29.3 52.9H41.5C42.1 52.9 42.5 53.4 42.5 53.9C42.5 54.5 42.1 54.9 41.5 54.9Z" fill="white"/>
<path d="M41.5 60H29.3C28.7 60 28.3 59.5 28.3 59C28.3 58.4 28.8 58 29.3 58H41.5C42.1 58 42.5 58.5 42.5 59C42.5 59.6 42.1 60 41.5 60Z" fill="white"/>
<path d="M41.5 65.1H29.3C28.7 65.1 28.3 64.6 28.3 64.1C28.3 63.5 28.8 63.1 29.3 63.1H41.5C42.1 63.1 42.5 63.6 42.5 64.1C42.5 64.7 42.1 65.1 41.5 65.1Z" fill="white"/>
<defs>
<linearGradient id="paint0_linear_1_258" x1="91.2681" y1="94.7497" x2="25.0783" y2="46.1207" gradientUnits="userSpaceOnUse">
<stop stop-color="#222429"/>
<stop offset="1" stop-color="#383A3E"/>
</linearGradient>
<linearGradient id="paint1_linear_1_258" x1="64.7749" y1="136.191" x2="8.40223" y2="122.397" gradientUnits="userSpaceOnUse">
<stop stop-color="#0B936A"/>
<stop offset="1" stop-color="#33B78F"/>
</linearGradient>
<linearGradient id="paint2_linear_1_258" x1="79.0516" y1="68.0111" x2="61.5893" y2="53.4956" gradientUnits="userSpaceOnUse">
<stop stop-color="#0B936A"/>
<stop offset="1" stop-color="#33B78F"/>
</linearGradient>
<linearGradient id="paint3_linear_1_258" x1="71.8772" y1="76.1579" x2="54.4149" y2="61.6424" gradientUnits="userSpaceOnUse">
<stop stop-color="#0B936A"/>
<stop offset="1" stop-color="#33B78F"/>
</linearGradient>
<linearGradient id="paint4_linear_1_258" x1="40.6555" y1="56.2766" x2="18.7058" y2="48.8471" gradientUnits="userSpaceOnUse">
<stop stop-color="#222429"/>
<stop offset="1" stop-color="#383A3E"/>
</linearGradient>
</defs>
</svg>
