<svg width="100" height="100" viewBox="0 0 100 100" fill="none" xmlns="http://www.w3.org/2000/svg">
<path d="M49.1 97.7C75.8858 97.7 97.6 75.9858 97.6 49.2C97.6 22.4142 75.8858 0.700012 49.1 0.700012C22.3142 0.700012 0.599998 22.4142 0.599998 49.2C0.599998 75.9858 22.3142 97.7 49.1 97.7Z" fill="#E9E9EA"/>
<path d="M55.1 17.5V20L45.8 20.6L35.9 20V17.5C35.9 17.1 36.3 16.7 36.7 16.7H54.4C54.8 16.7 55.1 17 55.1 17.5Z" fill="url(#paint0_linear_1_233)"/>
<path d="M65.4 23.5V74.1C65.4 76.2 63.7 77.9 61.6 77.9H28.2C26.1 77.9 24.4 76.2 24.4 74.1V23.5C24.4 21.4 26.1 19.7 28.2 19.7H30.2L44.9 20.7L59.2 19.7H61.5C63.7 19.7 65.4 21.4 65.4 23.5Z" fill="url(#paint1_linear_1_233)"/>
<path d="M66 23.8V74.4C66 76.5 64.3 78.2 62.2 78.2H59.9C62 78.2 63.7 76.5 63.7 74.4V23.8C63.7 19.9 60.3 20 60.3 20H62.2C64.3 20 66 21.7 66 23.8Z" fill="url(#paint2_linear_1_233)"/>
<path d="M62.2 21.9V69.9C62.2 71 61.3 71.8 60.3 71.8H30.7C29.6 71.8 28.8 70.9 28.8 69.9V21.9C28.8 20.8 29.7 20 30.7 20H60.2C61.3 20 62.2 20.8 62.2 21.9Z" fill="#E8F7F3"/>
<path d="M57.1 33.2H34.5C34.1 33.2 33.7 32.9 33.7 32.4V30.1C33.7 29.7 34 29.3 34.5 29.3H57.1C57.5 29.3 57.9 29.6 57.9 30.1V32.4C57.8 32.8 57.5 33.2 57.1 33.2Z" fill="#7CA1B1"/>
<path d="M51.6 20V21.8C51.6 23 50.6 24 49.4 24H41.5C40.3 24 39.3 23 39.3 21.8V20H37.4V21.8C37.4 24 39.2 25.9 41.5 25.9H49.4C51.6 25.9 53.5 24.1 53.5 21.8V20H51.6Z" fill="url(#paint3_linear_1_233)"/>
<path d="M40 40.3H34.7C34.2 40.3 33.8 39.9 33.8 39.4C33.8 38.9 34.2 38.5 34.7 38.5H40C40.5 38.5 40.9 38.9 40.9 39.4C40.9 39.9 40.5 40.3 40 40.3Z" fill="#7CA1B1"/>
<path d="M51.5 46.6H34.7C34.2 46.6 33.8 46.2 33.8 45.7C33.8 45.2 34.2 44.8 34.7 44.8H51.5C52 44.8 52.4 45.2 52.4 45.7C52.4 46.2 52 46.6 51.5 46.6Z" fill="#7CA1B1"/>
<path d="M49.8 52.8H34.7C34.2 52.8 33.8 52.4 33.8 51.9C33.8 51.4 34.2 51 34.7 51H49.8C50.3 51 50.7 51.4 50.7 51.9C50.7 52.4 50.3 52.8 49.8 52.8Z" fill="#7CA1B1"/>
<path d="M48.1 59H34.7C34.2 59 33.8 58.6 33.8 58.1C33.8 57.6 34.2 57.2 34.7 57.2H48.1C48.6 57.2 49 57.6 49 58.1C49.1 58.6 48.7 59 48.1 59Z" fill="#7CA1B1"/>
<path d="M40 65.2H34.7C34.2 65.2 33.8 64.8 33.8 64.3C33.8 63.8 34.2 63.4 34.7 63.4H40C40.5 63.4 40.9 63.8 40.9 64.3C40.9 64.8 40.5 65.2 40 65.2Z" fill="#7CA1B1"/>
<path d="M84 39.6L59.2 33C58.5 32.8 57.8 33.2 57.6 33.9L48 69.7C47.8 70.4 48.2 71.1 48.9 71.3L73.7 78C74.4 78.2 75.1 77.8 75.3 77.1L84.9 41.3C85.1 40.5 84.7 39.8 84 39.6Z" fill="url(#paint4_linear_1_233)"/>
<path d="M81.8 35.8L72.2 71.6C72 72.3 71.3 72.7 70.6 72.5L45.8 65.9C45.1 65.7 44.7 65 44.9 64.3L54.5 28.5C54.7 27.8 55.4 27.4 56.1 27.6L80.9 34.2C81.6 34.4 82 35.1 81.8 35.8Z" fill="#77CFB5"/>
<path d="M63.4 61C68.9781 61 73.5 56.4781 73.5 50.9C73.5 45.3219 68.9781 40.8 63.4 40.8C57.8219 40.8 53.3 45.3219 53.3 50.9C53.3 56.4781 57.8219 61 63.4 61Z" fill="#E8F7F3"/>
<path fill-rule="evenodd" clip-rule="evenodd" d="M63.4 40.8V60.9C68.9 60.9 73.5 56.4 73.5 50.8C73.5 45.2 68.9 40.8 63.4 40.8Z" fill="#E8F7F3"/>
<path d="M63.4 62.2C57.2 62.2 52.1 57.1 52.1 50.9C52.1 44.7 57.2 39.6 63.4 39.6C69.6 39.6 74.7 44.7 74.7 50.9C74.7 57.1 69.6 62.2 63.4 62.2ZM63.4 42.1C58.5 42.1 54.6 46 54.6 50.9C54.6 55.8 58.5 59.7 63.4 59.7C68.3 59.7 72.2 55.8 72.2 50.9C72.2 46 68.2 42.1 63.4 42.1Z" fill="#222429"/>
<path d="M67.1 53.2C67.1 52.1 66.7 51.2 65.8 50.6C65.2 50.1 64.4 49.9 63.7 49.6C63.6 49.6 63.3 49.5 63.3 49.5C62.2 49.1 62.1 48.9 62.1 48.5C62.1 47.8 62.8 47.7 63.2 47.7C63.7 47.7 64.5 47.9 64.5 48.5C64.5 49.2 65.1 49.8 65.8 49.8C66.5 49.8 67.1 49.2 67.1 48.5C67.1 47 66.1 45.8 64.6 45.4V44.8C64.6 44.1 64 43.5 63.3 43.5C62.6 43.5 62 44.1 62 44.8V45.4C60.6 45.8 59.6 47 59.6 48.5C59.6 50.8 61.6 51.6 62.6 51.9L62.8 52C64.3 52.5 64.5 52.7 64.5 53.1C64.5 53.8 63.8 53.9 63.4 53.9C62.9 53.9 62.1 53.7 62.1 53.1C62.1 52.4 61.5 51.8 60.8 51.8C60.1 51.8 59.5 52.4 59.5 53.1C59.5 54.6 60.5 55.8 62 56.2V57C62 57.7 62.6 58.3 63.3 58.3C64 58.3 64.6 57.7 64.6 57V56.3C66.1 55.9 67.1 54.7 67.1 53.2Z" fill="url(#paint5_linear_1_233)"/>
<defs>
<linearGradient id="paint0_linear_1_233" x1="57.2838" y1="21.9076" x2="54.0372" y2="10.1647" gradientUnits="userSpaceOnUse">
<stop stop-color="#222429"/>
<stop offset="1" stop-color="#383A3E"/>
</linearGradient>
<linearGradient id="paint1_linear_1_233" x1="67.2659" y1="142.275" x2="8.07997" y2="127.625" gradientUnits="userSpaceOnUse">
<stop stop-color="#0B936A"/>
<stop offset="1" stop-color="#33B78F"/>
</linearGradient>
<linearGradient id="paint2_linear_1_233" x1="66.2776" y1="142.575" x2="56.9451" y2="142.231" gradientUnits="userSpaceOnUse">
<stop stop-color="#0B936A"/>
<stop offset="1" stop-color="#33B78F"/>
</linearGradient>
<linearGradient id="paint3_linear_1_233" x1="55.3312" y1="27.8781" x2="47.6932" y2="12.5652" gradientUnits="userSpaceOnUse">
<stop stop-color="#222429"/>
<stop offset="1" stop-color="#383A3E"/>
</linearGradient>
<linearGradient id="paint4_linear_1_233" x1="89.1602" y1="93.1733" x2="24.5284" y2="54.2166" gradientUnits="userSpaceOnUse">
<stop stop-color="#222429"/>
<stop offset="1" stop-color="#383A3E"/>
</linearGradient>
<linearGradient id="paint5_linear_1_233" x1="67.4459" y1="74.6701" x2="56.1698" y2="72.6357" gradientUnits="userSpaceOnUse">
<stop stop-color="#0B936A"/>
<stop offset="1" stop-color="#33B78F"/>
</linearGradient>
</defs>
</svg>
