<svg width="100" height="100" viewBox="0 0 100 100" fill="none" xmlns="http://www.w3.org/2000/svg">
<path d="M50 97.7C76.7858 97.7 98.5 75.9858 98.5 49.2C98.5 22.4142 76.7858 0.700012 50 0.700012C23.2142 0.700012 1.5 22.4142 1.5 49.2C1.5 75.9858 23.2142 97.7 50 97.7Z" fill="#E9E9EA"/>
<path d="M60.3 39.2H34.1V62.6H60.3V39.2Z" fill="url(#paint0_linear_1_352)"/>
<path d="M50 39.2H44.4V44.8H50V39.2Z" fill="white"/>
<path d="M64.5 44.8H60.3V42.9H64.5C66.3 42.9 67.8 41.4 67.8 39.6C67.8 37.8 66.3 36.3 64.5 36.3H44.4C40.8 36.3 37.8 33.4 37.8 29.7C37.8 26 40.7 23.1 44.4 23.1H52.8V25H44.4C41.8 25 39.7 27.1 39.7 29.7C39.7 32.3 41.8 34.4 44.4 34.4H64.5C67.3 34.4 69.7 36.7 69.7 39.6C69.7 42.5 67.4 44.8 64.5 44.8Z" fill="url(#paint1_linear_1_352)"/>
<path d="M34.1 62.1V62.6H60.3V42.4L34.1 62.1Z" fill="url(#paint2_linear_1_352)"/>
<path d="M55.6 61.6H53.7C55.5 61.6 57 60.1 57 58.3C57 56.5 55.5 55 53.7 55H44.3C40.2 52.7 35.3 52.7 31.2 55V71H55.5L72.5 60.8C73.6 60.2 74.2 59 74.2 57.7C74.2 55.7 72.6 54.1 70.6 54.1H70.4C69.8 54.1 69.2 54.2 68.7 54.5L55.6 61.6Z" fill="#A4DFCD"/>
<path d="M31.3 55.1H19.1V71H31.3V55.1Z" fill="url(#paint3_linear_1_352)"/>
<path d="M55.6 62.6H45.3C44.8 62.6 44.4 62.2 44.4 61.7C44.4 61.2 44.8 60.8 45.3 60.8H55.6C56.1 60.8 56.5 61.2 56.5 61.7C56.5 62.2 56.1 62.6 55.6 62.6Z" fill="#77CFB5"/>
<path d="M25.7 67.3C26.7493 67.3 27.6 66.4493 27.6 65.4C27.6 64.3507 26.7493 63.5 25.7 63.5C24.6507 63.5 23.8 64.3507 23.8 65.4C23.8 66.4493 24.6507 67.3 25.7 67.3Z" fill="white"/>
<path d="M53.8 16.7L48.2 24.2L53.8 31.7H74.4V16.7H53.8ZM54.7 26C53.7 26 52.8 25.2 52.8 24.1C52.8 23 53.6 22.2 54.7 22.2C55.8 22.2 56.6 23 56.6 24.1C56.6 25.2 55.7 26 54.7 26Z" fill="url(#paint4_linear_1_352)"/>
<path d="M66.2 22.3H69.7V20.4H67.8V19.5H65.9V20.5C64.8 20.6 63.9 21.6 64 22.8C64.1 23.5 64.5 24.1 65.1 24.5L67.6 25.7C67.7 25.8 67.8 25.9 67.7 26C67.7 26.1 67.6 26.1 67.5 26.1H64V28H65.9V28.9H67.8V27.9C68.9 27.8 69.8 26.8 69.7 25.6C69.6 24.9 69.2 24.3 68.6 23.9L66.1 22.7C66 22.6 65.9 22.5 66 22.4C66 22.4 66.1 22.3 66.2 22.3Z" fill="url(#paint5_linear_1_352)"/>
<defs>
<linearGradient id="paint0_linear_1_352" x1="61.4924" y1="88.4825" x2="26.7332" y2="74.8086" gradientUnits="userSpaceOnUse">
<stop stop-color="#0B936A"/>
<stop offset="1" stop-color="#33B78F"/>
</linearGradient>
<linearGradient id="paint1_linear_1_352" x1="71.1518" y1="68.8021" x2="32.5728" y2="48.8762" gradientUnits="userSpaceOnUse">
<stop stop-color="#0B936A"/>
<stop offset="1" stop-color="#33B78F"/>
</linearGradient>
<linearGradient id="paint2_linear_1_352" x1="61.4924" y1="84.9431" x2="28.2563" y2="69.797" gradientUnits="userSpaceOnUse">
<stop stop-color="#0B936A"/>
<stop offset="1" stop-color="#33B78F"/>
</linearGradient>
<linearGradient id="paint3_linear_1_352" x1="31.8552" y1="88.5868" x2="14.4312" y2="83.8895" gradientUnits="userSpaceOnUse">
<stop stop-color="#0B936A"/>
<stop offset="1" stop-color="#33B78F"/>
</linearGradient>
<linearGradient id="paint4_linear_1_352" x1="77.38" y1="36.7291" x2="53.8083" y2="6.48054" gradientUnits="userSpaceOnUse">
<stop stop-color="#222429"/>
<stop offset="1" stop-color="#383A3E"/>
</linearGradient>
<linearGradient id="paint5_linear_1_352" x1="69.9677" y1="39.2973" x2="61.5941" y2="37.5085" gradientUnits="userSpaceOnUse">
<stop stop-color="#0B936A"/>
<stop offset="1" stop-color="#33B78F"/>
</linearGradient>
</defs>
</svg>
