<svg width="50" height="50" viewBox="0 0 50 50" fill="none" xmlns="http://www.w3.org/2000/svg">
<path d="M50 0H0V50H50V0Z" fill="#E9E9EA"/>
<path d="M27.8 40.8H14.2C12.8 40.8 11.7 39.6 11.7 38.3V11.7C11.7 10.3 12.9 9.20001 14.2 9.20001H27.8C29.2 9.20001 30.3 10.4 30.3 11.7V38.3C30.4 39.7 29.2 40.8 27.8 40.8Z" fill="url(#paint0_linear_1_506)"/>
<path d="M27.8 9.20001H26C27.4 9.20001 28.5 10.4 28.5 11.7V38.3C28.5 39.7 27.3 40.8 26 40.8H27.9C29.3 40.8 30.4 39.6 30.4 38.3V11.7C30.4 10.3 29.2 9.20001 27.8 9.20001Z" fill="#33B78F"/>
<path d="M28.7 11.7V38.3C28.7 38.8 28.3 39.2 27.8 39.2H14.2C13.7 39.2 13.3 38.8 13.3 38.3V11.7C13.3 11.2 13.7 10.8 14.2 10.8H16.7C16.8 10.8 17 10.9 17 11.1L17.4 12.1C17.5 12.2 17.6 12.4 17.7 12.4H24.2C24.3 12.4 24.5 12.3 24.5 12.1L24.8 11.1C24.9 11 25 10.8 25.1 10.8H27.6C28.3 10.8 28.7 11.2 28.7 11.7Z" fill="white"/>
<path d="M23.5 35.1H18.5C17.8 35.1 17.1 34.5 17.1 33.7C17.1 33 17.7 32.3 18.5 32.3H23.5C24.2 32.3 24.9 32.9 24.9 33.7C24.8 34.5 24.2 35.1 23.5 35.1Z" fill="url(#paint1_linear_1_506)"/>
<path d="M39.2 29.5H17.2C16.5 29.5 16 28.9 16 28.3V15.5C16 14.8 16.6 14.3 17.2 14.3H39.2C39.9 14.3 40.4 14.9 40.4 15.5V28.3C40.4 29 39.9 29.5 39.2 29.5Z" fill="url(#paint2_linear_1_506)"/>
<path d="M34 23.6C34 23.5 34 23.5 34 23.6C33.9 23.4 33.7 23.3 33.5 23.3C33.3 23.3 33 23.4 33 23.6L31.6 27.2001C31.5 27.5001 31.6 27.7 31.9 27.8C32 27.8 32 27.8 32.1 27.8C32.3 27.8 32.5 27.7 32.6 27.5L32.9 26.9H34.5L34.8 27.5C34.9 27.8 35.2 27.9 35.4 27.8C35.7 27.7 35.8 27.4001 35.7 27.2001L34 23.6ZM33 26L33.5 24.8L34 26H33Z" fill="#F8F7F7"/>
<path d="M38.1 23.2C37.9 23.1 37.6 23.1 37.5 23.3L36.7 24.5L35.9 23.3C35.8 23.1 35.4 23 35.3 23.2C35.1 23.3 35 23.7 35.2 23.8L36.3 25.5V27.3C36.3 27.6 36.5 27.8 36.8 27.8C37.1 27.8 37.3 27.6 37.3 27.3V25.5L38.4 23.8C38.4 23.7 38.3 23.4 38.1 23.2Z" fill="#F8F7F7"/>
<path d="M30.4 23.2H29.4C29.3 23.2 29.1 23.3 29.1 23.3C29 23.4 29 23.5 29 23.6V27.3C29 27.6 29.2 27.8 29.5 27.8C29.8 27.8 30 27.6 30 27.3V26.1C30.2 26.1 30.5 26.1 30.6 26.1C31.4 26.1 32.2 25.5 32.2 24.6C31.9 23.8 31.2 23.2 30.4 23.2ZM30.4 25.3C30.3 25.3 30.1 25.3 29.8 25.3C29.8 25.1 29.8 24.8 29.8 24.7C29.8 24.6 29.8 24.4 29.8 24.1H30.4C30.7 24.1 31 24.4 31 24.7C30.9 25 30.7 25.3 30.4 25.3Z" fill="#F8F7F7"/>
<path d="M23.2 20H19.2C19 20 18.8 19.8 18.8 19.6V17.1C18.8 16.9 19 16.7 19.2 16.7H23.2C23.4 16.7 23.6 16.9 23.6 17.1V19.6C23.6 19.9 23.4 20 23.2 20Z" fill="url(#paint3_linear_1_506)"/>
<path d="M21.5 27.1H16V23.8H21.6C22.5 23.8 23.3 24.5 23.3 25.5C23.2 26.4 22.5 27.1 21.5 27.1Z" fill="url(#paint4_linear_1_506)"/>
<path d="M27.6 17.4C27.3 17.4 27.1 17.6 27.1 17.9V18.7C27.1 19 27.3 19.2 27.6 19.2C27.9 19.2 28.1 19 28.1 18.7V17.9C28.1 17.6 27.9 17.4 27.6 17.4Z" fill="#F8F7F7"/>
<path d="M35.5 17.4C35.2 17.4 35 17.6 35 17.9V18.7C35 19 35.2 19.2 35.5 19.2C35.8 19.2 36 19 36 18.7V17.9C36 17.6 35.8 17.4 35.5 17.4Z" fill="#F8F7F7"/>
<path d="M37.2 17.4C36.9 17.4 36.7 17.6 36.7 17.9V18.7C36.7 19 36.9 19.2 37.2 19.2C37.5 19.2 37.7 19 37.7 18.7V17.9C37.7 17.6 37.5 17.4 37.2 17.4Z" fill="#F8F7F7"/>
<path d="M30.1 17.4C29.8 17.4 29.6 17.6 29.6 17.9V18.7C29.6 19 29.8 19.2 30.1 19.2C30.4 19.2 30.6 19 30.6 18.7V17.9C30.6 17.6 30.4 17.4 30.1 17.4Z" fill="#F8F7F7"/>
<path d="M31.9 17.4C31.6 17.4 31.4 17.6 31.4 17.9V18.7C31.4 19 31.6 19.2 31.9 19.2C32.2 19.2 32.4 19 32.4 18.7V17.9C32.4 17.6 32.2 17.4 31.9 17.4Z" fill="#F8F7F7"/>
<defs>
<linearGradient id="paint0_linear_1_506" x1="32.4221" y1="51.3946" x2="-4.89912" y2="35.2502" gradientUnits="userSpaceOnUse">
<stop stop-color="#222429"/>
<stop offset="1" stop-color="#383A3E"/>
</linearGradient>
<linearGradient id="paint1_linear_1_506" x1="25.255" y1="38.197" x2="19.1519" y2="32.2236" gradientUnits="userSpaceOnUse">
<stop stop-color="#0B936A"/>
<stop offset="1" stop-color="#33B78F"/>
</linearGradient>
<linearGradient id="paint2_linear_1_506" x1="41.5105" y1="46.3126" x2="13.151" y2="30.3176" gradientUnits="userSpaceOnUse">
<stop stop-color="#0B936A"/>
<stop offset="1" stop-color="#33B78F"/>
</linearGradient>
<linearGradient id="paint3_linear_1_506" x1="24.146" y1="21.1064" x2="18.8098" y2="15.404" gradientUnits="userSpaceOnUse">
<stop stop-color="#222429"/>
<stop offset="1" stop-color="#383A3E"/>
</linearGradient>
<linearGradient id="paint4_linear_1_506" x1="24.1303" y1="28.2064" x2="19.3565" y2="20.4479" gradientUnits="userSpaceOnUse">
<stop stop-color="#222429"/>
<stop offset="1" stop-color="#383A3E"/>
</linearGradient>
</defs>
</svg>
