<svg width="50" height="50" viewBox="0 0 50 50" fill="none" xmlns="http://www.w3.org/2000/svg">
<path d="M50 0H0V50H50V0Z" fill="#E9E9EA"/>
<path d="M35.1 12.8V37.2C35.1 39 33.7 40.4 31.9 40.4H18.2C16.4 40.4 15 39 15 37.2V12.8C15 11 16.4 9.59998 18.2 9.59998H31.9C33.7 9.59998 35.1 11 35.1 12.8Z" fill="#33B78F"/>
<path d="M35.1 12.8V37.2C35.1 39 33.7 40.4 31.9 40.4H30.7C32.5 40.4 33.9 39 33.9 37.2V12.8C34 11 32.5 9.59998 30.7 9.59998H31.9C33.7 9.59998 35.1 11 35.1 12.8Z" fill="url(#paint0_linear_1_428)"/>
<path d="M33.3 12.7V37.3C33.3 38.1 32.7 38.7 31.9 38.7H18.2C17.4 38.7 16.8 38.1 16.8 37.3V12.7C16.8 11.9 17.4 11.3 18.2 11.3H19.6C19.8 11.3 20 11.4 20 11.6L20.4 12.7C20.5 12.9 20.7 13.1 21 13.1H29C29.3 13.1 29.6 12.9 29.6 12.7L30 11.6C30.1 11.4 30.2 11.3 30.4 11.3H31.8C32.7 11.3 33.3 11.9 33.3 12.7Z" fill="white"/>
<path d="M27.5 10.9H22.6C22.4 10.9 22.2 11.1 22.2 11.3C22.2 11.5 22.4 11.7 22.6 11.7H27.5C27.7 11.7 27.9 11.5 27.9 11.3C27.9 11.1 27.7 10.9 27.5 10.9Z" fill="#415E6F"/>
<path d="M27.5 35.8H22.6C22.4 35.8 22.2 36 22.2 36.2C22.2 36.4 22.4 36.6 22.6 36.6H27.5C27.7 36.6 27.9 36.4 27.9 36.2C27.9 36 27.7 35.8 27.5 35.8Z" fill="#56788B"/>
<path d="M20 16.9V21.5C20 22.2 19.4 22.9 18.6 22.9H12.7L10.3 24.7C10.2 24.8 10.1 24.8 10.1 24.8C10 24.8 10 24.8 9.9 24.7C9.8 24.7 9.7 24.5 9.7 24.4V17C9.7 16.3 10.3 15.6 11.1 15.6H18.7C19.3 15.4 20 16.1 20 16.9Z" fill="url(#paint1_linear_1_428)"/>
<path d="M17.2 17.6H12.4C12.2 17.6 12 17.8 12 18C12 18.2 12.2 18.4 12.4 18.4H17.2C17.4 18.4 17.6 18.2 17.6 18C17.6 17.8 17.4 17.6 17.2 17.6Z" fill="white"/>
<path d="M16.6 19.7H12.4C12.2 19.7 12 19.9 12 20.1C12 20.3 12.2 20.5 12.4 20.5H16.6C16.8 20.5 17 20.3 17 20.1C17 19.9 16.8 19.7 16.6 19.7Z" fill="white"/>
<path d="M37.1 20.6C36.8 20.3 36.4 20.2 36.1 20.2C35.7 20.2 35.4 20.4 35.1 20.6L34.4 21.3C34.2 21.5 34.2 21.7 34.4 21.9L35.9 23.4C36 23.5 36.1 23.5 36.2 23.5C36.3 23.5 36.4 23.4 36.5 23.4L37.2 22.7C37.6 22.2 37.6 21.2 37.1 20.6Z" fill="url(#paint2_linear_1_428)"/>
<path d="M29.6 30.4L27.3 28C27.2 27.9 27.1 27.9 27 27.9C26.9 27.9 26.8 28 26.7 28C25.9 28.8 25.9 30.2 26.7 31C27.1 31.4 27.6 31.6 28.2 31.6C28.8 31.6 29.3 31.4 29.7 31C29.8 30.8 29.8 30.6 29.6 30.4Z" fill="url(#paint3_linear_1_428)"/>
<path d="M32.1 33.3C32 33.3 31.9 33.3 31.9 33.3C31.6 33.3 31.3 33.2 31.1 33L30.2 32.1L24.7 26.6C24.5 26.4 24.3 26 24.5 25.6C24.6 25.2 24.9 24.9 25.2 24.8L27.2 24.1L29.4 21.9C30.3 21 31.4 20.5 32.6 20.5C33.6 20.5 34.6 20.8 35.4 21.4C35.6 21.5 35.7 21.6 35.8 21.8C36.7 22.7 37.2 23.8 37.1 25C37.1 26.2 36.6 27.3 35.8 28.2L33.6 30.4L32.9 32.4C32.7 32.9 32.4 33.2 32.1 33.3Z" fill="url(#paint4_linear_1_428)"/>
<path d="M32.9 32.5C32.8 32.9 32.5 33.1 32.1 33.2C32 33.2 31.9 33.2 31.9 33.2C31.6 33.2 31.3 33.1 31.1 32.9L30.2 32C30.4 32.2 30.7 32.3 31 32.3C31.1 32.3 31.2 32.3 31.2 32.3C31.6 32.2 31.9 31.9 32 31.6L32.7 29.6L34.9 27.4C35.8 26.5 36.2 25.4 36.2 24.2C36.2 23.2 35.9 22.2 35.3 21.4C35.5 21.5 35.6 21.6 35.7 21.8C36.6 22.7 37.1 23.8 37 25C37 26.2 36.5 27.3 35.7 28.2L33.5 30.4L32.9 32.5Z" fill="url(#paint5_linear_1_428)"/>
<path d="M28.5 19.1C27.8 19.1 27.1 19.7 27.1 20.5C27.1 20.7 27.3 20.9 27.5 20.9C27.7 20.9 27.9 20.7 27.9 20.5C27.9 20.3 28.1 20.1 28.3 20.1C28.5 20.1 28.7 19.9 28.7 19.7C28.8 19.4 28.7 19.1 28.5 19.1Z" fill="url(#paint6_linear_1_428)"/>
<path d="M28.5 17.2C26.7 17.2 25.2 18.7 25.2 20.5C25.2 20.7 25.4 20.9 25.6 20.9C25.8 20.9 26 20.7 26 20.5C26 19.2 27 18.2 28.3 18.2C28.5 18.2 28.7 18 28.7 17.8C28.9 17.4 28.7 17.2 28.5 17.2Z" fill="url(#paint7_linear_1_428)"/>
<path d="M37.2 30.6C37.9 30.6 38.6 30 38.6 29.2C38.6 29 38.4 28.8 38.2 28.8C38 28.8 37.8 29 37.8 29.2C37.8 29.4 37.6 29.6 37.4 29.6C37.2 29.6 37 29.8 37 30C37 30.2 36.9 30.6 37.2 30.6Z" fill="url(#paint8_linear_1_428)"/>
<path d="M40 28.8C39.8 28.8 39.6 29 39.6 29.2C39.6 30.5 38.6 31.5 37.3 31.5C37.1 31.5 36.9 31.7 36.9 31.9C36.9 32.1 37.1 32.3 37.3 32.3C39.1 32.3 40.6 30.8 40.6 29C40.4 28.9 40.3 28.8 40 28.8Z" fill="url(#paint9_linear_1_428)"/>
<path d="M19.9 31.9H21.8C22 31.9 22.2 31.7 22.2 31.5C22.2 31.3 22 31.1 21.8 31.1H19.9C19.7 31.1 19.5 31.3 19.5 31.5C19.5 31.7 19.6 31.9 19.9 31.9Z" fill="#90ABBD"/>
<path d="M23 33H19.9C19.7 33 19.5 33.2 19.5 33.4C19.5 33.6 19.7 33.8 19.9 33.8H23C23.2 33.8 23.4 33.6 23.4 33.4C23.5 33.2 23.3 33 23 33Z" fill="#90ABBD"/>
<defs>
<linearGradient id="paint0_linear_1_428" x1="35.6005" y1="50.7264" x2="25.2372" y2="49.6387" gradientUnits="userSpaceOnUse">
<stop stop-color="#222429"/>
<stop offset="1" stop-color="#383A3E"/>
</linearGradient>
<linearGradient id="paint1_linear_1_428" x1="21.1715" y1="27.8961" x2="6.49814" y2="15.8719" gradientUnits="userSpaceOnUse">
<stop stop-color="#222429"/>
<stop offset="1" stop-color="#383A3E"/>
</linearGradient>
<linearGradient id="paint2_linear_1_428" x1="37.6359" y1="27.1501" x2="33.2017" y2="25.6212" gradientUnits="userSpaceOnUse">
<stop stop-color="#0B936A"/>
<stop offset="1" stop-color="#33B78F"/>
</linearGradient>
<linearGradient id="paint3_linear_1_428" x1="29.9325" y1="35.6926" x2="24.9236" y2="33.949" gradientUnits="userSpaceOnUse">
<stop stop-color="#0B936A"/>
<stop offset="1" stop-color="#33B78F"/>
</linearGradient>
<linearGradient id="paint4_linear_1_428" x1="37.6904" y1="47.458" x2="20.3471" y2="41.4142" gradientUnits="userSpaceOnUse">
<stop stop-color="#0B936A"/>
<stop offset="1" stop-color="#33B78F"/>
</linearGradient>
<linearGradient id="paint5_linear_1_428" x1="37.3227" y1="46.2519" x2="27.2982" y2="44.2185" gradientUnits="userSpaceOnUse">
<stop stop-color="#0B936A"/>
<stop offset="1" stop-color="#33B78F"/>
</linearGradient>
<linearGradient id="paint6_linear_1_428" x1="28.9257" y1="21.5035" x2="26.2293" y2="19.6995" gradientUnits="userSpaceOnUse">
<stop stop-color="#222429"/>
<stop offset="1" stop-color="#383A3E"/>
</linearGradient>
<linearGradient id="paint7_linear_1_428" x1="29.1904" y1="22.1405" x2="23.5258" y2="18.1106" gradientUnits="userSpaceOnUse">
<stop stop-color="#222429"/>
<stop offset="1" stop-color="#383A3E"/>
</linearGradient>
<linearGradient id="paint8_linear_1_428" x1="38.7838" y1="31.2035" x2="36.1023" y2="29.4348" gradientUnits="userSpaceOnUse">
<stop stop-color="#222429"/>
<stop offset="1" stop-color="#383A3E"/>
</linearGradient>
<linearGradient id="paint9_linear_1_428" x1="41.0208" y1="33.4734" x2="35.5253" y2="29.2052" gradientUnits="userSpaceOnUse">
<stop stop-color="#222429"/>
<stop offset="1" stop-color="#383A3E"/>
</linearGradient>
</defs>
</svg>
