<svg width="50" height="50" viewBox="0 0 50 50" fill="none" xmlns="http://www.w3.org/2000/svg">
<path d="M50 0H0V50H50V0Z" fill="#E9E9EA"/>
<path d="M38.9 42.4H21.5C20.2 42.4 19.2 41.4 19.2 40.1V9.89998C19.2 8.59998 20.2 7.59998 21.5 7.59998H38.9C40.2 7.59998 41.2 8.59998 41.2 9.89998V40.1C41.3 41.3 40.2 42.4 38.9 42.4Z" fill="#8DD7C1"/>
<path d="M35.4 42.4H21.5C20.2 42.4 19.2 41.4 19.2 40.1V9.89998C19.2 8.59998 20.2 7.59998 21.5 7.59998H35.4C36.7 7.59998 37.7 8.59998 37.7 9.89998V40.1C37.8 41.3 36.7 42.4 35.4 42.4Z" fill="url(#paint0_linear_1_452)"/>
<path d="M34.3 40.1H22.7C22 40.1 21.5 39.6 21.5 38.9V13.4C21.5 12.7 22 12.2 22.7 12.2H34.3C35 12.2 35.5 12.7 35.5 13.4V38.9C35.4 39.6 34.9 40.1 34.3 40.1Z" fill="white"/>
<path d="M30.3 10.5H26.8C26.5 10.5 26.2 10.2 26.2 9.89999C26.2 9.59999 26.5 9.29999 26.8 9.29999H30.3C30.6 9.29999 30.9 9.59999 30.9 9.89999C30.8 10.3 30.5 10.5 30.3 10.5Z" fill="#555A6E"/>
<path d="M30.5 25.5L28.3 23.5C28.2 23.4 28 23.3 27.9 23.3C27.5 23.3 27.2 23.6 27.2 24V25H25V18.1C25 17.4 24.5 16.9 23.8 16.9H9.9C9.2 16.9 8.7 17.4 8.7 18.1V34.4C8.7 35.1 9.2 35.6 9.9 35.6H23.8C24.5 35.6 25 35.1 25 34.4V27.5H27.1V28.5C27.1 28.9 27.4 29.2 27.8 29.2C27.9 29.2 28.2 29.1 28.2 29L30.4 27C30.5 26.9 30.7 26.6 30.7 26.3C30.8 25.9 30.7 25.7 30.5 25.5Z" fill="url(#paint1_linear_1_452)"/>
<path d="M10.5 22.1C10.2 22.1 9.9 21.8 9.9 21.5V18.6C9.9 18.3 10.2 18 10.5 18H13.4C13.7 18 14 18.3 14 18.6C14 18.9 13.7 19.2 13.4 19.2H11.1V21.5C11.1 21.9 10.9 22.1 10.5 22.1Z" fill="url(#paint2_linear_1_452)"/>
<path d="M13.4 34.3H10.5C10.2 34.3 9.9 34 9.9 33.7V30.8C9.9 30.5 10.2 30.2 10.5 30.2C10.8 30.2 11.1 30.5 11.1 30.8V33.1H13.4C13.7 33.1 14 33.4 14 33.7C14 34 13.7 34.3 13.4 34.3Z" fill="url(#paint3_linear_1_452)"/>
<path d="M23.2 22.1C22.9 22.1 22.6 21.8 22.6 21.5V19.2H20.3C20 19.2 19.7 18.9 19.7 18.6C19.7 18.3 20 18 20.3 18H23.2C23.5 18 23.8 18.3 23.8 18.6V21.5C23.8 21.9 23.6 22.1 23.2 22.1Z" fill="url(#paint4_linear_1_452)"/>
<path d="M23.2 34.3H20.3C20 34.3 19.7 34 19.7 33.7C19.7 33.4 20 33.1 20.3 33.1H22.6V30.8C22.6 30.5 22.9 30.2 23.2 30.2C23.5 30.2 23.8 30.5 23.8 30.8V33.7C23.8 34 23.6 34.3 23.2 34.3Z" fill="url(#paint5_linear_1_452)"/>
<path d="M18.4 20.6C18.3 20.6 18.3 20.6 18.2 20.6C18 20.5 17.8 20.5 17.5 20.5C17.2 20.4 17 20.1 17 19.8C17.1 19.5 17.4 19.3 17.7 19.3C18 19.4 18.3 19.4 18.6 19.5C18.9 19.6 19 19.9 19 20.2C18.9 20.5 18.7 20.6 18.4 20.6Z" fill="white"/>
<path d="M12.9 30.8C12.7 30.8 12.5 30.7 12.4 30.5C12 29.7 11.7 28.8 11.7 27.9V24.4C11.7 21.9 13.5 19.8 15.9 19.3C16.2 19.2 16.6 19.4 16.6 19.7C16.7 20 16.5 20.4 16.2 20.4C14.3 20.8 13 22.4 13 24.3V27.9C13 28.6 13.2 29.3 13.5 29.9C13.6 30.2 13.6 30.6 13.3 30.7C13 30.8 13 30.8 12.9 30.8Z" fill="white"/>
<path d="M16.9 33.1C16.6 33.1 16.3 32.8 16.3 32.5C16.3 32.2 16.6 31.9 16.9 31.9C18.7 31.9 20.3 30.7 20.8 29C20.9 28.7 21.2 28.5 21.5 28.6C21.8 28.7 22 29 21.9 29.3C21.6 30.3 21 31.3 20.1 32C19.1 32.7 18 33.1 16.9 33.1Z" fill="white"/>
<path d="M21.5 27.9C21.2 27.9 20.9 27.6 20.9 27.3V24.4C20.9 23.4 20.5 22.4 19.9 21.7C19.7 21.5 19.7 21.1 20 20.9C20.2 20.7 20.6 20.7 20.8 21C21.7 21.9 22.1 23.2 22.1 24.4V27.3C22.1 27.6 21.9 27.9 21.5 27.9Z" fill="white"/>
<path d="M19.2 29.8C18.9 29.8 18.6 29.5 18.6 29.2V24.4C18.6 23.5 17.8 22.6 16.8 22.6C16.7 22.6 16.5 22.6 16.4 22.7C16.1 22.8 15.7 22.6 15.7 22.3C15.6 21.9 15.8 21.6 16.1 21.6C16.3 21.5 16.6 21.5 16.8 21.5C18.4 21.5 19.7 22.8 19.7 24.4V29.2C19.7 29.6 19.5 29.8 19.2 29.8Z" fill="white"/>
<path d="M14.6 29.7C14.3 29.7 14 29.4 14 29.1V24.4C14 24 14.1 23.6 14.2 23.2C14.3 22.9 14.6 22.8 14.9 22.9C15.2 23 15.3 23.3 15.2 23.6C15.1 23.8 15.1 24 15.1 24.3V29C15.2 29.4 14.9 29.7 14.6 29.7Z" fill="white"/>
<path d="M14.8 32.4C14.7 32.4 14.5 32.3 14.4 32.3C14.2 32.1 14.2 31.7 14.4 31.5L15.4 30.5C16.1 29.8 16.3 29 16.3 28.2V25C16.3 24.7 16.6 24.4 16.9 24.4C17.2 24.4 17.5 24.7 17.5 25V28.1C17.5 29.3 17.1 30.4 16.2 31.2L15.2 32.2C15.1 32.3 14.9 32.4 14.8 32.4Z" fill="white"/>
<path d="M33.1 22.1V30.2C33.1 30.9 32.6 31.4 31.9 31.4C31.2 31.4 30.8 30.9 30.8 30.3V22.1C30.8 21.4 31.3 20.9 32 20.9C32.7 20.9 33.1 21.4 33.1 22.1Z" fill="url(#paint6_linear_1_452)"/>
<defs>
<linearGradient id="paint0_linear_1_452" x1="39.8112" y1="54.0675" x2="1.57929" y2="39.1302" gradientUnits="userSpaceOnUse">
<stop stop-color="#222429"/>
<stop offset="1" stop-color="#383A3E"/>
</linearGradient>
<linearGradient id="paint1_linear_1_452" x1="31.7423" y1="56.2839" x2="2.9203" y2="44.3491" gradientUnits="userSpaceOnUse">
<stop stop-color="#0B936A"/>
<stop offset="1" stop-color="#33B78F"/>
</linearGradient>
<linearGradient id="paint2_linear_1_452" x1="14.4663" y1="23.4746" x2="8.12573" y2="18.8162" gradientUnits="userSpaceOnUse">
<stop stop-color="#222429"/>
<stop offset="1" stop-color="#383A3E"/>
</linearGradient>
<linearGradient id="paint3_linear_1_452" x1="14.4663" y1="35.6746" x2="8.12573" y2="31.0162" gradientUnits="userSpaceOnUse">
<stop stop-color="#222429"/>
<stop offset="1" stop-color="#383A3E"/>
</linearGradient>
<linearGradient id="paint4_linear_1_452" x1="24.2663" y1="23.4746" x2="17.9257" y2="18.8162" gradientUnits="userSpaceOnUse">
<stop stop-color="#222429"/>
<stop offset="1" stop-color="#383A3E"/>
</linearGradient>
<linearGradient id="paint5_linear_1_452" x1="24.2663" y1="35.6746" x2="17.9257" y2="31.0162" gradientUnits="userSpaceOnUse">
<stop stop-color="#222429"/>
<stop offset="1" stop-color="#383A3E"/>
</linearGradient>
<linearGradient id="paint6_linear_1_452" x1="33.2047" y1="43.014" x2="29.7018" y2="42.7444" gradientUnits="userSpaceOnUse">
<stop stop-color="#0B936A"/>
<stop offset="1" stop-color="#33B78F"/>
</linearGradient>
</defs>
</svg>
