<svg width="50" height="50" viewBox="0 0 50 50" fill="none" xmlns="http://www.w3.org/2000/svg">
<path d="M50 0H0V50H50V0Z" fill="#E9E9EA"/>
<path d="M12.2 39.3H37.8V23.6C37.8 22.8 37.1 22.1 36.3 22.1H13.7C12.9 22.1 12.2 22.8 12.2 23.6V39.3Z" fill="url(#paint0_linear_1_364)"/>
<path d="M35.2 24.6V36.9H14.8V24.6H35.2Z" fill="white"/>
<path d="M10.4 39.3H39.6V40.8C39.6 41.6 38.9 42.3 38.1 42.3H11.9C11.1 42.3 10.4 41.6 10.4 40.8V39.3Z" fill="#8DD7C1"/>
<path d="M33.4 19.7C33.4 15.1 29.6 11.3 25 11.3C20.4 11.3 16.6 15.1 16.6 19.7C16.6 22.2 17.7 24.5 19.4 26C20.9 27.3 21.8 29.2 21.8 31.2V31.8H28.2V31.2C28.2 29.2 29.1 27.3 30.6 26C32.3 24.5 33.4 22.3 33.4 19.7Z" fill="url(#paint1_linear_1_364)"/>
<path d="M18.8 20.1C18.6 20.1 18.5 20 18.5 19.8C18.5 16.2 21.5 13.2 25.1 13.2C25.3 13.2 25.4 13.3 25.4 13.5C25.4 13.7 25.3 13.8 25.1 13.8C21.9 13.8 19.3 16.4 19.3 19.6C19.2 19.9 19 20.1 18.8 20.1Z" fill="white"/>
<path d="M25 9.50001C24.8 9.50001 24.7 9.40001 24.7 9.20001V8.00001C24.6 7.80001 24.8 7.70001 25 7.70001C25.2 7.70001 25.3 7.80001 25.3 8.00001V9.00001C25.3 9.30001 25.2 9.50001 25 9.50001Z" fill="url(#paint2_linear_1_364)"/>
<path d="M16.4 13.1C16.3 13.1 16.2 13 16.1 13L15.3 12.2C15.2 12.1 15.2 11.9 15.3 11.6C15.4 11.5 15.6 11.5 15.9 11.6L16.7 12.4C16.8 12.7 16.7 13.1 16.4 13.1Z" fill="url(#paint3_linear_1_364)"/>
<path d="M13.5 19H12.5C12.3 19 12.2 18.9 12.2 18.7C12.2 18.5 12.3 18.4 12.5 18.4H13.5C13.7 18.4 13.8 18.5 13.8 18.7C13.8 18.8 13.7 19 13.5 19Z" fill="url(#paint4_linear_1_364)"/>
<path d="M37.6 18.9H36.6C36.4 18.9 36.3 18.8 36.3 18.6C36.3 18.4 36.4 18.3 36.6 18.3H37.6C37.8 18.3 37.9 18.4 37.9 18.6C38 18.8 37.8 18.9 37.6 18.9Z" fill="url(#paint5_linear_1_364)"/>
<path d="M33.6 13C33.3 13 33.1 12.6 33.3 12.4L34.1 11.6C34.2 11.5 34.4 11.5 34.7 11.6C34.8 11.7 34.8 11.9 34.7 12.2L33.8 13C33.8 13 33.7 13 33.6 13Z" fill="url(#paint6_linear_1_364)"/>
<path d="M28.5 29H21.6C20.8 29 20.2 29.6 20.2 30.4C20.2 31.2 20.8 31.8 21.6 31.8H28.5C29.3 31.8 29.9 31.2 29.9 30.4C29.8 29.6 29.2 29 28.5 29Z" fill="url(#paint7_linear_1_364)"/>
<path d="M28.2 31.8H21.8V33.5C21.8 34.1 22.3 34.5 22.8 34.5H27.2C27.8 34.5 28.2 34 28.2 33.5C28.2 33.5 28.2 31.8 28.2 31.8Z" fill="url(#paint8_linear_1_364)"/>
<path d="M30.1 15.2C30.1 16.7 29.3 18.2 28.2 19.3L25 22L23.3 20.4L26.1 17.2C27.1 15.9 28.6 15.2 30.1 15.2Z" fill="url(#paint9_linear_1_364)"/>
<path d="M25 22L23.3 20.4C22.8 20.3 21.2 20.5 21.2 22.5C21.2 23.6 19.7 24.3 19.7 24.3C19.7 24.3 22.5 25.5 24.5 23.3C24.9 23 25.1 22.5 25 22Z" fill="#FFDBB3"/>
<path d="M23.1 20.1L25.2 22.2L26.6 20.8L24.5 18.7L23.1 20.1Z" fill="#F9F9F9"/>
<path d="M40.9 34.8C40.7 34.8 40.6 34.7 40.6 34.5V28.1C40.6 27.9 40.7 27.8 40.9 27.8C41.1 27.8 41.2 27.9 41.2 28.1V34.5C41.2 34.7 41.1 34.8 40.9 34.8Z" fill="#DDDDDD"/>
<path d="M40.9 26.7C40.7 26.7 40.6 26.6 40.6 26.4V25.9C40.6 25.7 40.7 25.6 40.9 25.6C41.1 25.6 41.2 25.7 41.2 25.9V26.4C41.2 26.6 41.1 26.7 40.9 26.7Z" fill="#DDDDDD"/>
<path d="M9.1 34.8C8.9 34.8 8.8 34.7 8.8 34.5V28.1C8.8 27.9 8.9 27.8 9.1 27.8C9.3 27.8 9.4 27.9 9.4 28.1V34.5C9.5 34.7 9.3 34.8 9.1 34.8Z" fill="#DDDDDD"/>
<path d="M9.1 26.7C8.9 26.7 8.8 26.6 8.8 26.4V25.9C8.8 25.7 8.9 25.6 9.1 25.6C9.3 25.6 9.4 25.7 9.4 25.9V26.4C9.5 26.6 9.3 26.7 9.1 26.7Z" fill="#DDDDDD"/>
<path d="M32.7 32.6C32.5 32.6 32.4 32.5 32.4 32.3V28.9C32.4 28.7 32.5 28.6 32.7 28.6C32.9 28.6 33 28.7 33 28.9V32.3C33.1 32.5 33 32.6 32.7 32.6Z" fill="#DDDDDD"/>
<path d="M32.7 34.7999C32.5 34.7999 32.4 34.7 32.4 34.5V34C32.4 33.8 32.5 33.7 32.7 33.7C32.9 33.7 33 33.8 33 34V34.5C33.1 34.7 33 34.7999 32.7 34.7999Z" fill="#DDDDDD"/>
<path d="M17.3 32.6C17.1 32.6 17 32.5 17 32.3V28.9C17 28.7 17.1 28.6 17.3 28.6C17.5 28.6 17.6 28.7 17.6 28.9V32.3C17.7 32.5 17.5 32.6 17.3 32.6Z" fill="#DDDDDD"/>
<path d="M17.3 34.7999C17.1 34.7999 17 34.7 17 34.5V34C17 33.8 17.1 33.7 17.3 33.7C17.5 33.7 17.6 33.8 17.6 34V34.5C17.7 34.7 17.5 34.7999 17.3 34.7999Z" fill="#DDDDDD"/>
<path d="M10.8 12.7L11.4 12.8L10.7 13C10.4 13.1 10.1 13.4 10 13.8L9.9 14.3L9.8 13.7C9.7 13.4 9.4 13.2 9 13L8.4 12.9L9 12.7C9.3 12.6 9.7 12.4 9.8 11.9L9.9 11.3L10 12C10.1 12.4 10.4 12.7 10.8 12.7Z" fill="url(#paint10_linear_1_364)"/>
<path d="M41 12.6L41.6 12.7L40.9 13C40.6 13.1 40.3 13.4 40.2 13.8L40.1 14.4L40 13.8C39.9 13.5 39.7 13.2 39.3 13L38.6 12.8L39.2 12.7C39.5 12.6 39.9 12.4 40 11.9L40.1 11.3L40.4 11.9C40.4 12.3 40.7 12.5 41 12.6Z" fill="url(#paint11_linear_1_364)"/>
<defs>
<linearGradient id="paint0_linear_1_364" x1="40.7117" y1="45.0667" x2="12.9489" y2="14.7082" gradientUnits="userSpaceOnUse">
<stop stop-color="#222429"/>
<stop offset="1" stop-color="#383A3E"/>
</linearGradient>
<linearGradient id="paint1_linear_1_364" x1="34.1646" y1="54.4749" x2="10.3975" y2="47.6315" gradientUnits="userSpaceOnUse">
<stop stop-color="#0B936A"/>
<stop offset="1" stop-color="#33B78F"/>
</linearGradient>
<linearGradient id="paint2_linear_1_364" x1="25.3285" y1="11.491" x2="24.3827" y2="11.3753" gradientUnits="userSpaceOnUse">
<stop stop-color="#0B936A"/>
<stop offset="1" stop-color="#33B78F"/>
</linearGradient>
<linearGradient id="paint3_linear_1_364" x1="16.8063" y1="14.8421" x2="14.726" y2="14.1402" gradientUnits="userSpaceOnUse">
<stop stop-color="#0B936A"/>
<stop offset="1" stop-color="#33B78F"/>
</linearGradient>
<linearGradient id="paint4_linear_1_364" x1="13.8728" y1="19.6637" x2="12.5675" y2="18.4407" gradientUnits="userSpaceOnUse">
<stop stop-color="#0B936A"/>
<stop offset="1" stop-color="#33B78F"/>
</linearGradient>
<linearGradient id="paint5_linear_1_364" x1="38.0006" y1="19.5636" x2="36.6941" y2="18.3191" gradientUnits="userSpaceOnUse">
<stop stop-color="#0B936A"/>
<stop offset="1" stop-color="#33B78F"/>
</linearGradient>
<linearGradient id="paint6_linear_1_364" x1="34.8458" y1="14.6315" x2="32.7504" y2="13.8551" gradientUnits="userSpaceOnUse">
<stop stop-color="#0B936A"/>
<stop offset="1" stop-color="#33B78F"/>
</linearGradient>
<linearGradient id="paint7_linear_1_364" x1="31.0033" y1="32.7388" x2="27.9145" y2="24.8772" gradientUnits="userSpaceOnUse">
<stop stop-color="#222429"/>
<stop offset="1" stop-color="#383A3E"/>
</linearGradient>
<linearGradient id="paint8_linear_1_364" x1="28.9279" y1="35.4052" x2="25.1489" y2="28.8241" gradientUnits="userSpaceOnUse">
<stop stop-color="#222429"/>
<stop offset="1" stop-color="#383A3E"/>
</linearGradient>
<linearGradient id="paint9_linear_1_364" x1="30.8734" y1="24.2799" x2="20.3573" y2="16.5538" gradientUnits="userSpaceOnUse">
<stop stop-color="#222429"/>
<stop offset="1" stop-color="#383A3E"/>
</linearGradient>
<linearGradient id="paint10_linear_1_364" x1="11.7412" y1="15.3058" x2="7.10175" y2="11.8972" gradientUnits="userSpaceOnUse">
<stop stop-color="#222429"/>
<stop offset="1" stop-color="#383A3E"/>
</linearGradient>
<linearGradient id="paint11_linear_1_364" x1="41.9412" y1="15.4393" x2="37.1962" y2="12.0656" gradientUnits="userSpaceOnUse">
<stop stop-color="#222429"/>
<stop offset="1" stop-color="#383A3E"/>
</linearGradient>
</defs>
</svg>
