<svg width="50" height="50" viewBox="0 0 50 50" fill="none" xmlns="http://www.w3.org/2000/svg">
<path d="M50 0.200012H0.2V50H50V0.200012Z" fill="#E9E9EA"/>
<path d="M24.8 18.7C24.5 18.7 24.3 18.5 24.3 18.1V14.9C24.3 14.6 24.5 14.3 24.8 14.3C25.1 14.3 25.3 14.5 25.3 14.9V18.1C25.4 18.5 25.1 18.7 24.8 18.7Z" fill="#9C9C9C"/>
<path d="M40.4 27.1C40.1 27.1 39.9 26.9 39.9 26.5V25C39.9 23.5 39.6 22.1 39 20.8C38.9 20.5 39 20.2 39.3 20.1C39.6 20 39.9 20.1 40 20.4C40.7 21.9 41 23.4 41 25.1V26.6C41 26.8 40.7 27.1 40.4 27.1ZM9.3 27.1C9 27.1 8.8 26.9 8.8 26.5V25C8.8 21.5 10.3 18.5 13.1 16.3C15.6 14.4 19 13.2 22.8 12.8C23.1 12.8 23.4 13 23.4 13.3C23.4 13.6 23.2 13.9 22.9 13.9C16.9 14.4 9.9 17.7 9.9 25V26.5C9.8 26.8 9.5 27.1 9.3 27.1ZM30.2 14.4C30.1 14.4 30.1 14.4 30.1 14.4C29.1 14.2 28 14 26.9 13.9C26.6 13.9 26.4 13.6 26.4 13.3C26.4 13 26.7 12.8 27 12.8C28.2 12.9 29.3 13.1 30.4 13.4C30.7 13.5 30.8 13.8 30.8 14.1C30.7 14.3 30.5 14.4 30.2 14.4Z" fill="url(#paint0_linear_1_544)"/>
<path fill-rule="evenodd" clip-rule="evenodd" d="M13.3 33.5V26.4H9.6C6 26.4 6 33.5 9.6 33.5H13.3Z" fill="url(#paint1_linear_1_544)"/>
<path fill-rule="evenodd" clip-rule="evenodd" d="M36.3 26.5V33.6H40.1C40.4 33.6 40.7 33.5 41 33.5C43.7 32.5 43.5 26.6 40.1 26.6L36.3 26.5Z" fill="url(#paint2_linear_1_544)"/>
<path fill-rule="evenodd" clip-rule="evenodd" d="M20.2 18.2H29.5C34.1 18.2 37.9 22 37.9 26.6V34.3C37.9 37.6 35.2 40.3 31.9 40.3H17.7C14.4 40.3 11.7 37.6 11.7 34.3V26.6C11.8 21.9 15.5 18.2 20.2 18.2Z" fill="url(#paint3_linear_1_544)"/>
<path fill-rule="evenodd" clip-rule="evenodd" d="M18 24.1H31.6C33.3 24.1 34.7 25.5 34.7 27.2V32.8C34.7 34.5 33.3 35.9 31.6 35.9H18C16.3 35.9 14.9 34.5 14.9 32.8V27.2C14.9 25.5 16.3 24.1 18 24.1Z" fill="#F8F6F6"/>
<path fill-rule="evenodd" clip-rule="evenodd" d="M24.8 15C25.8 15 26.6 14.3 26.8 13.4C26.9 13.2 26.9 13 26.9 12.8C26.9 11.6 26 10.6 24.7 10.6C23.5 10.6 22.5 11.5 22.5 12.8C22.5 13 22.5 13.2 22.6 13.4C23 14.3 23.8 15 24.8 15Z" fill="url(#paint4_linear_1_544)"/>
<path fill-rule="evenodd" clip-rule="evenodd" d="M11.8 33.5V30.8H9.6C8.3 30.8 7.4 29.9 7 28.6C6.4 30.7 7.3 33.5 9.6 33.5H11.8Z" fill="url(#paint5_linear_1_544)"/>
<path fill-rule="evenodd" clip-rule="evenodd" d="M37.8 30.8V33.5H40C40.3 33.5 40.6 33.4 40.9 33.4C42.5 32.8 43.1 30.5 42.6 28.7C42.2 29.9 41.4 30.9 40 30.9H37.8V30.8Z" fill="url(#paint6_linear_1_544)"/>
<path fill-rule="evenodd" clip-rule="evenodd" d="M25.2 13.3C25 14 24.5 14.5 23.8 14.7C24.1 14.8 24.5 15 24.8 15C25.8 15 26.6 14.3 26.8 13.4C27 13.1 27 13 27 12.8C27 11.6 26.1 10.6 24.8 10.6C24.6 10.6 24.4 10.6 24.1 10.7C24.8 11.1 25.2 11.8 25.2 12.6C25.2 12.8 25.2 13 25.1 13.2C25.2 13.2 25.2 13.3 25.2 13.3Z" fill="url(#paint7_linear_1_544)"/>
<path fill-rule="evenodd" clip-rule="evenodd" d="M35.4 9.90002H37.7C40.7 9.90002 43.1 12.3 43.1 15.3V15.5C43.1 18.5 40.7 20.9 37.7 20.9H35.4H34.3C34.2 20.9 34.2 20.9 34.1 21L32.1 21.8C32 21.9 32 21.8 32 21.7V19.7C30.8 18.7 30.1 17.2 30.1 15.6V15.4C30 12.3 32.4 9.90002 35.4 9.90002Z" fill="url(#paint8_linear_1_544)"/>
<path fill-rule="evenodd" clip-rule="evenodd" d="M20.3 30.5C21.2 30.5 22 29.8 22 28.8C22 27.9 21.3 27.1 20.3 27.1C19.3 27.1 18.6 27.8 18.6 28.8C18.6 29.8 19.4 30.5 20.3 30.5Z" fill="url(#paint9_linear_1_544)"/>
<path fill-rule="evenodd" clip-rule="evenodd" d="M29.6 27.1C28.7 27.1 27.9 27.8 27.9 28.8C27.9 29.8 28.6 30.5 29.6 30.5C30.6 30.5 31.3 29.8 31.3 28.8C31.3 27.9 30.5 27.1 29.6 27.1Z" fill="url(#paint10_linear_1_544)"/>
<path fill-rule="evenodd" clip-rule="evenodd" d="M22 28.8C22 27.9 21.3 27.1 20.3 27.1C20.1 27.1 19.9 27.1 19.7 27.2C20.4 27.4 20.8 28.1 20.8 28.8C20.8 29.5 20.4 30.2 19.7 30.4C19.8 30.5 20.1 30.5 20.3 30.5C21.2 30.5 22 29.8 22 28.8Z" fill="url(#paint11_linear_1_544)"/>
<path d="M40.1 17.1H33.8C33.5 17.1 33.3 16.9 33.3 16.5C33.3 16.2 33.5 15.9 33.8 15.9H40.1C40.4 15.9 40.6 16.1 40.6 16.5C40.7 16.8 40.4 17.1 40.1 17.1Z" fill="white"/>
<path d="M38.6 14.5H33.9C33.6 14.5 33.4 14.3 33.4 13.9C33.4 13.5 33.6 13.3 33.9 13.3H38.6C38.9 13.3 39.1 13.5 39.1 13.9C39.1 14.2 38.8 14.5 38.6 14.5Z" fill="white"/>
<path d="M24.8 33.9C24.1 33.9 23.3 33.6 22.8 33C22.6 32.8 22.6 32.4 22.8 32.2C23 32 23.4 32 23.6 32.2C23.9 32.6 24.3 32.7 24.8 32.7C25.2 32.7 25.7 32.5 26 32.2C26.2 32 26.6 32 26.8 32.2C27 32.4 27 32.8 26.8 33C26.3 33.6 25.6 33.9 24.8 33.9Z" fill="url(#paint12_linear_1_544)"/>
<defs>
<linearGradient id="paint0_linear_1_544" x1="42.4654" y1="42.9171" x2="12.1255" y2="18.9136" gradientUnits="userSpaceOnUse">
<stop stop-color="#0B936A"/>
<stop offset="1" stop-color="#33B78F"/>
</linearGradient>
<linearGradient id="paint1_linear_1_544" x1="13.5913" y1="41.3533" x2="4.6803" y2="38.5311" gradientUnits="userSpaceOnUse">
<stop stop-color="#0B936A"/>
<stop offset="1" stop-color="#33B78F"/>
</linearGradient>
<linearGradient id="paint2_linear_1_544" x1="43.1545" y1="41.4532" x2="34.0671" y2="38.505" gradientUnits="userSpaceOnUse">
<stop stop-color="#0B936A"/>
<stop offset="1" stop-color="#33B78F"/>
</linearGradient>
<linearGradient id="paint3_linear_1_544" x1="40.88" y1="47.7095" x2="5.40429" y2="16.8105" gradientUnits="userSpaceOnUse">
<stop stop-color="#222429"/>
<stop offset="1" stop-color="#383A3E"/>
</linearGradient>
<linearGradient id="paint4_linear_1_544" x1="27.1002" y1="19.8668" x2="21.1001" y2="17.7586" gradientUnits="userSpaceOnUse">
<stop stop-color="#0B936A"/>
<stop offset="1" stop-color="#33B78F"/>
</linearGradient>
<linearGradient id="paint5_linear_1_544" x1="12.0267" y1="38.9198" x2="5.25929" y2="36.5029" gradientUnits="userSpaceOnUse">
<stop stop-color="#0B936A"/>
<stop offset="1" stop-color="#33B78F"/>
</linearGradient>
<linearGradient id="paint6_linear_1_544" x1="42.9979" y1="38.8092" x2="36.2721" y2="36.3616" gradientUnits="userSpaceOnUse">
<stop stop-color="#0B936A"/>
<stop offset="1" stop-color="#33B78F"/>
</linearGradient>
<linearGradient id="paint7_linear_1_544" x1="27.1456" y1="19.8668" x2="22.5437" y2="18.6909" gradientUnits="userSpaceOnUse">
<stop stop-color="#0B936A"/>
<stop offset="1" stop-color="#33B78F"/>
</linearGradient>
<linearGradient id="paint8_linear_1_544" x1="43.6918" y1="35.0497" x2="26.3147" y2="28.4016" gradientUnits="userSpaceOnUse">
<stop stop-color="#0B936A"/>
<stop offset="1" stop-color="#33B78F"/>
</linearGradient>
<linearGradient id="paint9_linear_1_544" x1="22.1547" y1="34.2607" x2="17.5183" y2="32.6317" gradientUnits="userSpaceOnUse">
<stop stop-color="#0B936A"/>
<stop offset="1" stop-color="#33B78F"/>
</linearGradient>
<linearGradient id="paint10_linear_1_544" x1="31.4547" y1="34.2607" x2="26.8183" y2="32.6317" gradientUnits="userSpaceOnUse">
<stop stop-color="#0B936A"/>
<stop offset="1" stop-color="#33B78F"/>
</linearGradient>
<linearGradient id="paint11_linear_1_544" x1="22.1047" y1="34.2607" x2="18.7695" y2="33.468" gradientUnits="userSpaceOnUse">
<stop stop-color="#0B936A"/>
<stop offset="1" stop-color="#33B78F"/>
</linearGradient>
<linearGradient id="paint12_linear_1_544" x1="27.4391" y1="34.5202" x2="24.8244" y2="30.0553" gradientUnits="userSpaceOnUse">
<stop stop-color="#222429"/>
<stop offset="1" stop-color="#383A3E"/>
</linearGradient>
</defs>
</svg>
