<svg width="50" height="50" viewBox="0 0 50 50" fill="none" xmlns="http://www.w3.org/2000/svg">
<path d="M50 0H0V49.9H50V0Z" fill="#E9E9EA"/>
<path d="M40.5 34.1H9.5C7.9 34.1 6.5 32.8 6.5 31.1V13C6.5 11.4 7.8 10 9.5 10H40.5C42.1 10 43.5 11.3 43.5 13V31.2C43.5 32.8 42.1 34.1 40.5 34.1Z" fill="url(#paint0_linear_1_525)"/>
<path d="M9.5 31.9C9.1 31.9 8.8 31.5 8.8 31.2V13C8.8 12.6 9.2 12.3 9.5 12.3H40.5C40.9 12.3 41.2 12.7 41.2 13V31.2C41.2 31.6 40.8 31.9 40.5 31.9H9.5Z" fill="white"/>
<path d="M28.1 26.4H10.7C10.6 26.4 10.4 26.3 10.4 26.1V16.1C10.4 16 10.5 15.8 10.7 15.8H28.1C28.2 15.8 28.4 15.9 28.4 16.1V26.2C28.4 26.3 28.3 26.4 28.1 26.4Z" fill="url(#paint1_linear_1_525)"/>
<path d="M14.7 26.4H12.5V22.3C12.5 22.2 12.6 22 12.8 22H14.4C14.5 22 14.7 22.1 14.7 22.3C14.7 22.3 14.7 26.4 14.7 26.4Z" fill="#E8F7F3"/>
<path d="M22.6 26.4H20.4V21.2C20.4 21.1 20.5 20.9 20.7 20.9H22.3C22.4 20.9 22.6 21 22.6 21.2V26.4V26.4Z" fill="#E8F7F3"/>
<path d="M18.6 26.4H16.4V24.1C16.4 24 16.5 23.8 16.7 23.8H18.3C18.4 23.8 18.6 23.9 18.6 24.1V26.4V26.4Z" fill="url(#paint2_linear_1_525)"/>
<path d="M26.6 26.4H24.4V23C24.4 22.9 24.5 22.7 24.7 22.7H26.3C26.4 22.7 26.6 22.8 26.6 23V26.4V26.4Z" fill="url(#paint3_linear_1_525)"/>
<path d="M31.4 38.4H18.6C18.6 38.4 19.9 37 19.9 33.4H30.2C30.2 37 31.4 38.4 31.4 38.4Z" fill="#A4DFCD"/>
<path d="M30.2 33.4H28C28 36.9 29.3 38.4 29.3 38.4H31.5C31.4 38.4 30.2 37 30.2 33.4Z" fill="#60C7A8"/>
<path d="M35 25.8C37.5957 25.8 39.7 23.6958 39.7 21.1C39.7 18.5043 37.5957 16.4 35 16.4C32.4043 16.4 30.3 18.5043 30.3 21.1C30.3 23.6958 32.4043 25.8 35 25.8Z" fill="url(#paint4_linear_1_525)"/>
<path d="M26.6 18.9H24.6L23 17.3C22.9 17.2 22.8 17.2 22.6 17.2H20.4C20.2 17.2 20 17.3 20 17.4L18.3 20H16.6L15 18.3C14.9 18.2 14.8 18.2 14.6 18.2H12.4C12.1 18.2 11.9 18.4 11.9 18.7C11.9 19 12.1 19.2 12.4 19.2H14.4L16 20.9C16.1 21 16.2 21 16.4 21H18.6C18.8 21 19 20.9 19 20.8L20.6 18.3H22.3L23.9 19.9C24 20 24.1 20 24.3 20H26.5C26.8 20 27 19.8 27 19.5C27.1 19.2 26.8 18.9 26.6 18.9Z" fill="white"/>
<path d="M36.6 22.1C36.6 21.2 35.9 20.5 34.9 20.5C34.6 20.5 34.3 20.3 34.3 20C34.3 19.7 34.6 19.5 34.9 19.5C35.2 19.5 35.4 19.6 35.5 19.9C35.6 20.2 35.9 20.3 36.2 20.3C36.5 20.3 36.6 19.9 36.6 19.6C36.5 19.1 36 18.6 35.6 18.5C35.6 18.2 35.4 18 35.1 18C34.8 18 34.6 18.2 34.6 18.5C33.9 18.7 33.5 19.3 33.5 20.1C33.5 21 34.2 21.7 35.2 21.7C35.5 21.7 35.8 21.9 35.8 22.2C35.8 22.5 35.5 22.7 35.2 22.7C35 22.7 34.8 22.6 34.7 22.3C34.6 22 34.3 21.9 34 22C33.7 22.1 33.6 22.4 33.7 22.7C33.9 23.1 34.3 23.4 34.7 23.6V23.7C34.7 24 34.9 24.2 35.2 24.2C35.5 24.2 35.7 24 35.7 23.7V23.6C36.2 23.5 36.6 22.9 36.6 22.1Z" fill="white"/>
<path d="M40.5 34.1H9.5C7.9 34.1 6.5 32.8 6.5 31.1V30.4H43.5V31.1C43.5 32.8 42.1 34.1 40.5 34.1Z" fill="#8DD7C1"/>
<path d="M41.3 30.4V31.1C41.3 32.7 40 34.1 38.3 34.1H40.5C42.1 34.1 43.5 32.8 43.5 31.1V30.4H41.3V30.4Z" fill="#60C7A8"/>
<path d="M33.9 40.1H16.1C15.5 40.1 15 39.6 15 39C15 38.4 15.5 37.9 16.1 37.9H33.8C34.4 37.9 34.9 38.4 34.9 39C35 39.6 34.5 40.1 33.9 40.1Z" fill="url(#paint5_linear_1_525)"/>
<path d="M33.9 37.8H31.7C32.3 37.8 32.8 38.3 32.8 38.9C32.8 39.5 32.2 40 31.7 40H33.9C34.5 40 35 39.5 35 38.9C35 38.3 34.5 37.8 33.9 37.8Z" fill="url(#paint6_linear_1_525)"/>
<defs>
<linearGradient id="paint0_linear_1_525" x1="47.7084" y1="42.1801" x2="8.93398" y2="-1.55544" gradientUnits="userSpaceOnUse">
<stop stop-color="#222429"/>
<stop offset="1" stop-color="#383A3E"/>
</linearGradient>
<linearGradient id="paint1_linear_1_525" x1="29.2192" y1="38.1246" x2="8.88246" y2="25.991" gradientUnits="userSpaceOnUse">
<stop stop-color="#0B936A"/>
<stop offset="1" stop-color="#33B78F"/>
</linearGradient>
<linearGradient id="paint2_linear_1_525" x1="18.8502" y1="27.2717" x2="15.0717" y2="24.9228" gradientUnits="userSpaceOnUse">
<stop stop-color="#222429"/>
<stop offset="1" stop-color="#383A3E"/>
</linearGradient>
<linearGradient id="paint3_linear_1_525" x1="26.8502" y1="27.6405" x2="22.451" y2="25.7188" gradientUnits="userSpaceOnUse">
<stop stop-color="#222429"/>
<stop offset="1" stop-color="#383A3E"/>
</linearGradient>
<linearGradient id="paint4_linear_1_525" x1="40.1278" y1="36.1973" x2="27.3094" y2="31.6935" gradientUnits="userSpaceOnUse">
<stop stop-color="#0B936A"/>
<stop offset="1" stop-color="#33B78F"/>
</linearGradient>
<linearGradient id="paint5_linear_1_525" x1="37.1777" y1="40.8376" x2="36.1291" y2="33.8648" gradientUnits="userSpaceOnUse">
<stop stop-color="#222429"/>
<stop offset="1" stop-color="#383A3E"/>
</linearGradient>
<linearGradient id="paint6_linear_1_525" x1="35.3753" y1="40.7376" x2="31.8268" y2="36.827" gradientUnits="userSpaceOnUse">
<stop stop-color="#222429"/>
<stop offset="1" stop-color="#383A3E"/>
</linearGradient>
</defs>
</svg>
